<?xml version="1.0" encoding="UTF-8"?>
<svg xmlns="http://www.w3.org/2000/svg" version="1.1" viewBox="0 0 500 397.2">
  <defs>
    <style>
      .cls-1, .cls-2, .cls-3 {
        fill: #e44e37;
      }

      .cls-4, .cls-5 {
        fill: #263238;
      }

      .cls-6, .cls-7 {
        fill: #fff;
      }

      .cls-2, .cls-5 {
        opacity: .7;
      }

      .cls-2, .cls-5, .cls-8, .cls-3, .cls-7 {
        isolation: isolate;
      }

      .cls-9 {
        fill: #e0e0e0;
      }

      .cls-10 {
        fill: #ffb573;
      }

      .cls-8 {
        opacity: .2;
      }

      .cls-11 {
        fill: #ebebeb;
      }

      .cls-12 {
        fill: #f5f5f5;
      }

      .cls-13 {
        fill: #ed893e;
      }

      .cls-3 {
        opacity: .6;
      }

      .cls-7 {
        opacity: .1;
      }
    </style>
  </defs>
  <!-- Generator: Adobe Illustrator 28.6.0, SVG Export Plug-In . SVG Version: 1.2.0 Build 709)  -->
  <g>
    <g id="Layer_1">
      <path class="cls-11" d="M500,338.5H0v.2h500v-.2Z"/>
      <path class="cls-11" d="M78.5,348.1h-26v.2h26v-.2Z"/>
      <path class="cls-11" d="M200.4,345.3h-54.1v.2h54.1v-.2Z"/>
      <path class="cls-11" d="M105.8,357.3h-26.3v.2h26.3v-.2Z"/>
      <path class="cls-11" d="M449.9,355.7h-19.2v.2h19.2v-.2Z"/>
      <path class="cls-11" d="M421.8,355.7h-30.3v.2h30.3v-.2Z"/>
      <path class="cls-11" d="M312.8,351.4h-54.6v.2h54.6v-.2Z"/>
      <path class="cls-11" d="M237,293.9H43.9c-3.1,0-5.7-2.6-5.7-5.7V16.8c0-3.1,2.6-5.7,5.7-5.7h193.1c3.1,0,5.7,2.6,5.7,5.7v271.4c0,3.1-2.6,5.7-5.7,5.7ZM43.9,11.3c-3,0-5.5,2.4-5.5,5.5v271.4c0,3,2.4,5.5,5.5,5.5h193.1c3,0,5.5-2.4,5.5-5.5V16.8c0-3-2.4-5.5-5.5-5.5H43.9Z"/>
      <path class="cls-11" d="M453.3,293.9h-193.1c-3.1,0-5.7-2.6-5.7-5.7V16.8c0-3.1,2.6-5.7,5.7-5.7h193.1c3.1,0,5.7,2.6,5.7,5.7v271.4c0,3.1-2.6,5.7-5.7,5.7ZM260.2,11.3c-3,0-5.5,2.4-5.5,5.5v271.4c0,3,2.4,5.5,5.5,5.5h193.1c3,0,5.5-2.4,5.5-5.5V16.8c0-3-2.4-5.5-5.5-5.5h-193.1Z"/>
      <path class="cls-9" d="M382.2,105.7h-69.4c-3.7,3.7-5.8,5.8-9.6,9.6v213.6c3.7,3.7,5.8,5.8,9.6,9.6h69.4l9.6-9.6V115.3c-3.7-3.7-5.8-5.8-9.6-9.6Z"/>
      <path class="cls-11" d="M303.2,328.9l9.6,9.6h21.5l-9.6-9.6h-21.5Z"/>
      <path class="cls-11" d="M303.2,115.3l9.6-9.6h21.5l-9.6,9.6h-21.5Z"/>
      <path class="cls-11" d="M420.4,105.7h-86.1c-3.7,3.7-5.8,5.8-9.6,9.6v213.6c3.7,3.7,5.8,5.8,9.6,9.6h86.1l9.6-9.6V115.3c-3.7-3.7-5.8-5.8-9.6-9.6Z"/>
      <path class="cls-6" d="M335.5,334.1l-6.3-6.3V116.6l6.3-6.3h83.7l6.3,6.3v211.2l-6.3,6.3h-83.7Z"/>
      <path class="cls-11" d="M425.5,121.6h-91.9v18.5h91.9v-18.5Z"/>
      <path class="cls-12" d="M420.3,309c0,.4.4.8.8.8s.8-.4.8-.8-.4-.8-.8-.8-.8.4-.8.8Z"/>
      <path class="cls-6" d="M416.5,309c0,.4.4.8.8.8s.8-.4.8-.8-.4-.8-.8-.8-.8.4-.8.8Z"/>
      <path class="cls-12" d="M412.6,309c0,.4.4.8.8.8s.8-.4.8-.8-.4-.8-.8-.8-.8.4-.8.8Z"/>
      <path class="cls-12" d="M425.5,129h-91.9v3.6h91.9v-3.6Z"/>
      <path class="cls-9" d="M329.2,140.1h4.5v-18.5h-4.5v18.5Z"/>
      <path class="cls-11" d="M425.5,141.9h-91.9v18.5h91.9v-18.5Z"/>
      <path class="cls-12" d="M420.3,288.8c0,.4.4.8.8.8s.8-.4.8-.8-.4-.8-.8-.8c-.4,0-.8.4-.8.8Z"/>
      <path class="cls-6" d="M416.5,288.8c0,.4.4.8.8.8s.8-.4.8-.8-.4-.8-.8-.8c-.4,0-.8.4-.8.8Z"/>
      <path class="cls-6" d="M412.6,288.8c0,.4.4.8.8.8s.8-.4.8-.8-.4-.8-.8-.8c-.4,0-.8.4-.8.8Z"/>
      <path class="cls-12" d="M425.5,149.3h-91.9v3.6h91.9v-3.6Z"/>
      <path class="cls-9" d="M329.2,160.4h4.5v-18.5h-4.5v18.5Z"/>
      <path class="cls-11" d="M425.5,162.2h-91.9v18.5h91.9v-18.5Z"/>
      <path class="cls-12" d="M420.3,268.5c0,.4.4.8.8.8s.8-.4.8-.8-.4-.8-.8-.8-.8.4-.8.8Z"/>
      <path class="cls-12" d="M416.5,268.5c0,.4.4.8.8.8s.8-.4.8-.8-.4-.8-.8-.8-.8.4-.8.8Z"/>
      <path class="cls-12" d="M412.6,268.5c0,.4.4.8.8.8s.8-.4.8-.8-.4-.8-.8-.8-.8.4-.8.8Z"/>
      <path class="cls-12" d="M425.5,169.6h-91.9v3.6h91.9v-3.6Z"/>
      <path class="cls-9" d="M329.2,180.7h4.5v-18.5h-4.5v18.5Z"/>
      <path class="cls-11" d="M425.5,182.5h-91.9v18.5h91.9v-18.5Z"/>
      <path class="cls-6" d="M420.3,248.2c0,.4.4.8.8.8s.8-.4.8-.8-.4-.8-.8-.8-.8.4-.8.8Z"/>
      <path class="cls-6" d="M416.5,248.2c0,.4.4.8.8.8s.8-.4.8-.8-.4-.8-.8-.8-.8.4-.8.8Z"/>
      <path class="cls-12" d="M412.6,248.2c0,.4.4.8.8.8s.8-.4.8-.8-.4-.8-.8-.8-.8.4-.8.8Z"/>
      <path class="cls-12" d="M425.5,189.9h-91.9v3.6h91.9v-3.6Z"/>
      <path class="cls-9" d="M329.2,200.9h4.5v-18.5h-4.5v18.5Z"/>
      <path class="cls-11" d="M425.5,202.7h-91.9v18.5h91.9v-18.5Z"/>
      <path class="cls-6" d="M420.3,227.9c0,.4.4.8.8.8s.8-.4.8-.8-.4-.8-.8-.8-.8.4-.8.8Z"/>
      <path class="cls-6" d="M416.5,227.9c0,.4.4.8.8.8s.8-.4.8-.8-.4-.8-.8-.8-.8.4-.8.8Z"/>
      <path class="cls-6" d="M412.6,227.9c0,.4.4.8.8.8s.8-.4.8-.8-.4-.8-.8-.8-.8.4-.8.8Z"/>
      <path class="cls-12" d="M425.5,210.2h-91.9v3.6h91.9v-3.6Z"/>
      <path class="cls-9" d="M329.2,221.2h4.5v-18.5h-4.5v18.5Z"/>
      <path class="cls-11" d="M425.5,223h-91.9v18.5h91.9v-18.5Z"/>
      <path class="cls-12" d="M420.3,207.6c0,.4.4.8.8.8s.8-.4.8-.8-.4-.8-.8-.8c-.4,0-.8.4-.8.8Z"/>
      <path class="cls-6" d="M416.5,207.6c0,.4.4.8.8.8s.8-.4.8-.8-.4-.8-.8-.8c-.4,0-.8.4-.8.8Z"/>
      <path class="cls-12" d="M412.6,207.6c0,.4.4.8.8.8s.8-.4.8-.8-.4-.8-.8-.8c-.4,0-.8.4-.8.8Z"/>
      <path class="cls-12" d="M425.5,230.5h-91.9v3.6h91.9v-3.6Z"/>
      <path class="cls-9" d="M329.2,241.5h4.5v-18.5h-4.5v18.5Z"/>
      <path class="cls-11" d="M425.5,243.3h-91.9v18.5h91.9v-18.5Z"/>
      <path class="cls-6" d="M420.3,187.3c0,.4.4.8.8.8s.8-.4.8-.8-.4-.8-.8-.8-.8.4-.8.8Z"/>
      <path class="cls-6" d="M416.5,187.3c0,.4.4.8.8.8s.8-.4.8-.8-.4-.8-.8-.8-.8.4-.8.8Z"/>
      <path class="cls-12" d="M412.6,187.3c0,.4.4.8.8.8s.8-.4.8-.8-.4-.8-.8-.8-.8.4-.8.8Z"/>
      <path class="cls-12" d="M425.5,250.8h-91.9v3.6h91.9v-3.6Z"/>
      <path class="cls-9" d="M329.2,261.8h4.5v-18.5h-4.5v18.5Z"/>
      <path class="cls-11" d="M425.5,263.6h-91.9v18.5h91.9v-18.5Z"/>
      <path class="cls-6" d="M420.3,167c0,.4.4.8.8.8s.8-.4.8-.8-.4-.8-.8-.8c-.4,0-.8.4-.8.8Z"/>
      <path class="cls-12" d="M416.5,167c0,.4.4.8.8.8s.8-.4.8-.8-.4-.8-.8-.8c-.4,0-.8.4-.8.8Z"/>
      <path class="cls-6" d="M412.6,167c0,.4.4.8.8.8s.8-.4.8-.8-.4-.8-.8-.8c-.4,0-.8.4-.8.8Z"/>
      <path class="cls-12" d="M425.5,271.1h-91.9v3.6h91.9v-3.6Z"/>
      <path class="cls-9" d="M329.2,282.1h4.5v-18.5h-4.5v18.5Z"/>
      <path class="cls-11" d="M425.5,283.9h-91.9v18.5h91.9v-18.5Z"/>
      <path class="cls-12" d="M420.3,146.7c0,.4.4.8.8.8s.8-.4.8-.8-.4-.8-.8-.8c-.4,0-.8.4-.8.8Z"/>
      <path class="cls-6" d="M416.5,146.7c0,.4.4.8.8.8s.8-.4.8-.8-.4-.8-.8-.8c-.4,0-.8.4-.8.8Z"/>
      <path class="cls-12" d="M412.6,146.7c0,.4.4.8.8.8s.8-.4.8-.8-.4-.8-.8-.8c-.4,0-.8.4-.8.8Z"/>
      <path class="cls-12" d="M425.5,291.3h-91.9v3.6h91.9v-3.6Z"/>
      <path class="cls-9" d="M329.2,302.4h4.5v-18.5h-4.5v18.5Z"/>
      <path class="cls-11" d="M425.5,304.2h-91.9v18.5h91.9v-18.5Z"/>
      <path class="cls-12" d="M420.3,126.4c0,.4.4.8.8.8s.8-.4.8-.8-.4-.8-.8-.8c-.4,0-.8.4-.8.8Z"/>
      <path class="cls-12" d="M416.5,126.4c0,.4.4.8.8.8s.8-.4.8-.8-.4-.8-.8-.8c-.4,0-.8.4-.8.8Z"/>
      <path class="cls-6" d="M412.6,126.4c0,.4.4.8.8.8s.8-.4.8-.8-.4-.8-.8-.8c-.4,0-.8.4-.8.8Z"/>
      <path class="cls-12" d="M425.5,311.6h-91.9v3.6h91.9v-3.6Z"/>
      <path class="cls-9" d="M329.2,322.7h4.5v-18.5h-4.5v18.5Z"/>
      <path class="cls-9" d="M265.6,105.7h-69.4l-9.6,9.6v213.6c3.7,3.7,5.8,5.8,9.6,9.6h69.4l9.6-9.6V115.3c-3.7-3.7-5.8-5.8-9.6-9.6Z"/>
      <path class="cls-11" d="M186.6,328.9l9.6,9.6h21.5l-9.6-9.6h-21.5Z"/>
      <path class="cls-11" d="M186.6,115.3l9.6-9.6h21.5l-9.6,9.6h-21.5Z"/>
      <path class="cls-11" d="M303.8,105.7h-86.1c-3.7,3.7-5.8,5.8-9.6,9.6v213.6c3.7,3.7,5.8,5.8,9.6,9.6h86.1l9.6-9.6V115.3l-9.6-9.6Z"/>
      <path class="cls-6" d="M218.9,334.1l-6.3-6.3V116.6l6.3-6.3h83.7l6.3,6.3v211.2l-6.3,6.3h-83.7Z"/>
      <path class="cls-11" d="M308.9,121.6h-91.9v18.5h91.9v-18.5Z"/>
      <path class="cls-12" d="M303.7,126.4c0-.4.4-.8.8-.8s.8.4.8.8-.4.8-.8.8-.8-.4-.8-.8Z"/>
      <path class="cls-6" d="M299.9,126.4c0-.4.4-.8.8-.8s.8.4.8.8-.4.8-.8.8c-.4,0-.8-.4-.8-.8Z"/>
      <path class="cls-12" d="M296,126.4c0-.4.4-.8.8-.8s.8.4.8.8-.4.8-.8.8c-.4,0-.8-.4-.8-.8Z"/>
      <path class="cls-12" d="M308.9,129h-91.9v3.6h91.9v-3.6Z"/>
      <path class="cls-9" d="M212.6,140.1h4.5v-18.5h-4.5v18.5Z"/>
      <path class="cls-11" d="M308.9,141.9h-91.9v18.5h91.9v-18.5Z"/>
      <path class="cls-12" d="M303.7,146.7c0-.4.4-.8.8-.8s.8.4.8.8-.4.8-.8.8-.8-.4-.8-.8Z"/>
      <path class="cls-6" d="M299.9,146.7c0-.4.4-.8.8-.8s.8.4.8.8-.4.8-.8.8c-.4,0-.8-.4-.8-.8Z"/>
      <path class="cls-6" d="M296,146.7c0-.4.4-.8.8-.8s.8.4.8.8-.4.8-.8.8c-.4,0-.8-.4-.8-.8Z"/>
      <path class="cls-12" d="M308.9,149.3h-91.9v3.6h91.9v-3.6Z"/>
      <path class="cls-9" d="M212.6,160.4h4.5v-18.5h-4.5v18.5Z"/>
      <path class="cls-11" d="M308.9,162.2h-91.9v18.5h91.9v-18.5Z"/>
      <path class="cls-12" d="M303.7,167c0-.4.4-.8.8-.8s.8.4.8.8-.4.8-.8.8-.8-.4-.8-.8Z"/>
      <path class="cls-12" d="M299.9,167c0-.4.4-.8.8-.8s.8.4.8.8-.4.8-.8.8c-.4,0-.8-.4-.8-.8Z"/>
      <path class="cls-12" d="M296,167c0-.4.4-.8.8-.8s.8.4.8.8-.4.8-.8.8c-.4,0-.8-.4-.8-.8Z"/>
      <path class="cls-12" d="M308.9,169.6h-91.9v3.6h91.9v-3.6Z"/>
      <path class="cls-9" d="M212.6,180.7h4.5v-18.5h-4.5v18.5Z"/>
      <path class="cls-11" d="M308.9,182.5h-91.9v18.5h91.9v-18.5Z"/>
      <path class="cls-6" d="M303.7,187.3c0-.4.4-.8.8-.8s.8.4.8.8-.4.8-.8.8-.8-.4-.8-.8Z"/>
      <path class="cls-6" d="M299.9,187.3c0-.4.4-.8.8-.8s.8.4.8.8-.4.8-.8.8-.8-.4-.8-.8Z"/>
      <path class="cls-12" d="M296,187.3c0-.4.4-.8.8-.8s.8.4.8.8-.4.8-.8.8-.8-.4-.8-.8Z"/>
      <path class="cls-12" d="M308.9,189.9h-91.9v3.6h91.9v-3.6Z"/>
      <path class="cls-9" d="M212.6,200.9h4.5v-18.5h-4.5v18.5Z"/>
      <path class="cls-11" d="M308.9,202.7h-91.9v18.5h91.9v-18.5Z"/>
      <path class="cls-6" d="M303.7,207.6c0-.4.4-.8.8-.8s.8.4.8.8-.4.8-.8.8-.8-.4-.8-.8Z"/>
      <path class="cls-6" d="M299.9,207.6c0-.4.4-.8.8-.8s.8.4.8.8-.4.8-.8.8-.8-.4-.8-.8Z"/>
      <path class="cls-6" d="M296,207.6c0-.4.4-.8.8-.8s.8.4.8.8-.4.8-.8.8-.8-.4-.8-.8Z"/>
      <path class="cls-12" d="M308.9,210.2h-91.9v3.6h91.9v-3.6Z"/>
      <path class="cls-9" d="M212.6,221.2h4.5v-18.5h-4.5v18.5Z"/>
      <path class="cls-11" d="M308.9,223h-91.9v18.5h91.9v-18.5Z"/>
      <path class="cls-12" d="M303.7,227.9c0-.4.4-.8.8-.8s.8.4.8.8-.4.8-.8.8-.8-.4-.8-.8Z"/>
      <path class="cls-6" d="M299.9,227.9c0-.4.4-.8.8-.8s.8.4.8.8-.4.8-.8.8-.8-.4-.8-.8Z"/>
      <path class="cls-12" d="M296,227.9c0-.4.4-.8.8-.8s.8.4.8.8-.4.8-.8.8-.8-.4-.8-.8Z"/>
      <path class="cls-12" d="M308.9,230.5h-91.9v3.6h91.9v-3.6Z"/>
      <path class="cls-9" d="M212.6,241.5h4.5v-18.5h-4.5v18.5Z"/>
      <path class="cls-11" d="M308.9,243.3h-91.9v18.5h91.9v-18.5Z"/>
      <path class="cls-6" d="M303.7,248.2c0-.4.4-.8.8-.8s.8.4.8.8-.4.8-.8.8-.8-.4-.8-.8Z"/>
      <path class="cls-6" d="M299.9,248.2c0-.4.4-.8.8-.8s.8.4.8.8-.4.8-.8.8c-.4,0-.8-.4-.8-.8Z"/>
      <path class="cls-12" d="M296,248.2c0-.4.4-.8.8-.8s.8.4.8.8-.4.8-.8.8c-.4,0-.8-.4-.8-.8Z"/>
      <path class="cls-12" d="M308.9,250.8h-91.9v3.6h91.9v-3.6Z"/>
      <path class="cls-9" d="M212.6,261.8h4.5v-18.5h-4.5v18.5Z"/>
      <path class="cls-11" d="M308.9,263.6h-91.9v18.5h91.9v-18.5Z"/>
      <path class="cls-6" d="M303.7,268.5c0-.4.4-.8.8-.8s.8.4.8.8-.4.8-.8.8-.8-.4-.8-.8Z"/>
      <path class="cls-12" d="M299.9,268.5c0-.4.4-.8.8-.8s.8.4.8.8-.4.8-.8.8-.8-.4-.8-.8Z"/>
      <path class="cls-6" d="M296,268.5c0-.4.4-.8.8-.8s.8.4.8.8-.4.8-.8.8-.8-.4-.8-.8Z"/>
      <path class="cls-12" d="M308.9,271.1h-91.9v3.6h91.9v-3.6Z"/>
      <path class="cls-9" d="M212.6,282.1h4.5v-18.5h-4.5v18.5Z"/>
      <path class="cls-11" d="M308.9,283.9h-91.9v18.5h91.9v-18.5Z"/>
      <path class="cls-12" d="M303.7,288.8c0-.4.4-.8.8-.8s.8.4.8.8-.4.8-.8.8-.8-.4-.8-.8Z"/>
      <path class="cls-6" d="M299.9,288.8c0-.4.4-.8.8-.8s.8.4.8.8-.4.8-.8.8-.8-.4-.8-.8Z"/>
      <path class="cls-12" d="M296,288.8c0-.4.4-.8.8-.8s.8.4.8.8-.4.8-.8.8-.8-.4-.8-.8Z"/>
      <path class="cls-12" d="M308.9,291.3h-91.9v3.6h91.9v-3.6Z"/>
      <path class="cls-9" d="M212.6,302.4h4.5v-18.5h-4.5v18.5Z"/>
      <path class="cls-11" d="M308.9,304.2h-91.9v18.5h91.9v-18.5Z"/>
      <path class="cls-12" d="M303.7,309c0-.4.4-.8.8-.8s.8.4.8.8-.4.8-.8.8-.8-.4-.8-.8Z"/>
      <path class="cls-12" d="M299.9,309c0-.4.4-.8.8-.8s.8.4.8.8-.4.8-.8.8-.8-.4-.8-.8Z"/>
      <path class="cls-6" d="M296,309c0-.4.4-.8.8-.8s.8.4.8.8-.4.8-.8.8-.8-.4-.8-.8Z"/>
      <path class="cls-12" d="M308.9,311.6h-91.9v3.6h91.9v-3.6Z"/>
      <path class="cls-9" d="M212.6,322.7h4.5v-18.5h-4.5v18.5Z"/>
      <path class="cls-9" d="M149,105.7h-69.4c-3.7,3.7-5.8,5.8-9.6,9.6v213.6c3.7,3.7,5.8,5.8,9.6,9.6h69.4c3.7-3.7,5.8-5.8,9.6-9.6V115.3c-3.7-3.7-5.8-5.8-9.6-9.6Z"/>
      <path class="cls-11" d="M70,328.9l9.6,9.6h21.5l-9.6-9.6h-21.5Z"/>
      <path class="cls-11" d="M70,115.3l9.6-9.6h21.5l-9.6,9.6h-21.5Z"/>
      <path class="cls-11" d="M187.2,105.7h-86.1c-3.7,3.7-5.8,5.8-9.6,9.6v213.6c3.7,3.7,5.8,5.8,9.6,9.6h86.1c3.7-3.7,5.8-5.8,9.6-9.6V115.3c-3.7-3.7-5.8-5.8-9.6-9.6Z"/>
      <path class="cls-6" d="M102.3,334.1l-6.3-6.3V116.6l6.3-6.3h83.7l6.3,6.3v211.2l-6.3,6.3h-83.7Z"/>
      <path class="cls-11" d="M192.4,121.6h-91.9v18.5h91.9v-18.5Z"/>
      <path class="cls-12" d="M187.2,309c0,.4.4.8.8.8s.8-.4.8-.8-.4-.8-.8-.8-.8.4-.8.8Z"/>
      <path class="cls-6" d="M183.3,309c0,.4.4.8.8.8s.8-.4.8-.8-.4-.8-.8-.8-.8.4-.8.8Z"/>
      <path class="cls-12" d="M179.4,309c0,.4.4.8.8.8s.8-.4.8-.8-.4-.8-.8-.8-.8.4-.8.8Z"/>
      <path class="cls-12" d="M192.4,129h-91.9v3.6h91.9v-3.6Z"/>
      <path class="cls-9" d="M96,140.1h4.5v-18.5h-4.5v18.5Z"/>
      <path class="cls-11" d="M192.4,141.9h-91.9v18.5h91.9v-18.5Z"/>
      <path class="cls-12" d="M187.2,288.8c0,.4.4.8.8.8s.8-.4.8-.8-.4-.8-.8-.8c-.4,0-.8.4-.8.8Z"/>
      <path class="cls-6" d="M183.3,288.8c0,.4.4.8.8.8s.8-.4.8-.8-.4-.8-.8-.8c-.4,0-.8.4-.8.8Z"/>
      <path class="cls-6" d="M179.4,288.8c0,.4.4.8.8.8s.8-.4.8-.8-.4-.8-.8-.8c-.4,0-.8.4-.8.8Z"/>
      <path class="cls-12" d="M192.4,149.3h-91.9v3.6h91.9v-3.6Z"/>
      <path class="cls-9" d="M96,160.4h4.5v-18.5h-4.5v18.5Z"/>
      <path class="cls-11" d="M192.4,162.2h-91.9v18.5h91.9v-18.5Z"/>
      <path class="cls-12" d="M187.2,268.5c0,.4.4.8.8.8s.8-.4.8-.8-.4-.8-.8-.8-.8.4-.8.8Z"/>
      <path class="cls-12" d="M183.3,268.5c0,.4.4.8.8.8s.8-.4.8-.8-.4-.8-.8-.8-.8.4-.8.8Z"/>
      <path class="cls-12" d="M179.4,268.5c0,.4.4.8.8.8s.8-.4.8-.8-.4-.8-.8-.8-.8.4-.8.8Z"/>
      <path class="cls-12" d="M192.4,169.6h-91.9v3.6h91.9v-3.6Z"/>
      <path class="cls-9" d="M96,180.7h4.5v-18.5h-4.5v18.5Z"/>
      <path class="cls-11" d="M192.4,182.5h-91.9v18.5h91.9v-18.5Z"/>
      <path class="cls-6" d="M187.2,248.2c0,.4.4.8.8.8s.8-.4.8-.8-.4-.8-.8-.8-.8.4-.8.8Z"/>
      <path class="cls-6" d="M183.3,248.2c0,.4.4.8.8.8s.8-.4.8-.8-.4-.8-.8-.8-.8.4-.8.8Z"/>
      <path class="cls-12" d="M179.4,248.2c0,.4.4.8.8.8s.8-.4.8-.8-.4-.8-.8-.8-.8.4-.8.8Z"/>
      <path class="cls-12" d="M192.4,189.9h-91.9v3.6h91.9v-3.6Z"/>
      <path class="cls-9" d="M96,200.9h4.5v-18.5h-4.5v18.5Z"/>
      <path class="cls-11" d="M192.4,202.7h-91.9v18.5h91.9v-18.5Z"/>
      <path class="cls-6" d="M187.2,227.9c0,.4.4.8.8.8s.8-.4.8-.8-.4-.8-.8-.8-.8.4-.8.8Z"/>
      <path class="cls-6" d="M183.3,227.9c0,.4.4.8.8.8s.8-.4.8-.8-.4-.8-.8-.8-.8.4-.8.8Z"/>
      <path class="cls-6" d="M179.4,227.9c0,.4.4.8.8.8s.8-.4.8-.8-.4-.8-.8-.8-.8.4-.8.8Z"/>
      <path class="cls-12" d="M192.4,210.2h-91.9v3.6h91.9v-3.6Z"/>
      <path class="cls-9" d="M96,221.2h4.5v-18.5h-4.5v18.5Z"/>
      <path class="cls-11" d="M192.4,223h-91.9v18.5h91.9v-18.5Z"/>
      <path class="cls-12" d="M187.2,207.6c0,.4.4.8.8.8s.8-.4.8-.8-.4-.8-.8-.8c-.4,0-.8.4-.8.8Z"/>
      <path class="cls-6" d="M183.3,207.6c0,.4.4.8.8.8s.8-.4.8-.8-.4-.8-.8-.8c-.4,0-.8.4-.8.8Z"/>
      <path class="cls-12" d="M179.4,207.6c0,.4.4.8.8.8s.8-.4.8-.8-.4-.8-.8-.8c-.4,0-.8.4-.8.8Z"/>
      <path class="cls-12" d="M192.4,230.5h-91.9v3.6h91.9v-3.6Z"/>
      <path class="cls-9" d="M96,241.5h4.5v-18.5h-4.5v18.5Z"/>
      <path class="cls-11" d="M192.4,243.3h-91.9v18.5h91.9v-18.5Z"/>
      <path class="cls-6" d="M187.2,187.3c0,.4.4.8.8.8s.8-.4.8-.8-.4-.8-.8-.8-.8.4-.8.8Z"/>
      <path class="cls-6" d="M183.3,187.3c0,.4.4.8.8.8s.8-.4.8-.8-.4-.8-.8-.8-.8.4-.8.8Z"/>
      <path class="cls-12" d="M179.4,187.3c0,.4.4.8.8.8s.8-.4.8-.8-.4-.8-.8-.8-.8.4-.8.8Z"/>
      <path class="cls-12" d="M192.4,250.8h-91.9v3.6h91.9v-3.6Z"/>
      <path class="cls-9" d="M96,261.8h4.5v-18.5h-4.5v18.5Z"/>
      <path class="cls-11" d="M192.4,263.6h-91.9v18.5h91.9v-18.5Z"/>
      <path class="cls-6" d="M187.2,167c0,.4.4.8.8.8s.8-.4.8-.8-.4-.8-.8-.8c-.4,0-.8.4-.8.8Z"/>
      <path class="cls-12" d="M183.3,167c0,.4.4.8.8.8s.8-.4.8-.8-.4-.8-.8-.8c-.4,0-.8.4-.8.8Z"/>
      <path class="cls-6" d="M179.4,167c0,.4.4.8.8.8s.8-.4.8-.8-.4-.8-.8-.8c-.4,0-.8.4-.8.8Z"/>
      <path class="cls-12" d="M192.4,271.1h-91.9v3.6h91.9v-3.6Z"/>
      <path class="cls-9" d="M96,282.1h4.5v-18.5h-4.5v18.5Z"/>
      <path class="cls-11" d="M192.4,283.9h-91.9v18.5h91.9v-18.5Z"/>
      <path class="cls-12" d="M187.2,146.7c0,.4.4.8.8.8s.8-.4.8-.8-.4-.8-.8-.8c-.4,0-.8.4-.8.8Z"/>
      <path class="cls-6" d="M183.3,146.7c0,.4.4.8.8.8s.8-.4.8-.8-.4-.8-.8-.8c-.4,0-.8.4-.8.8Z"/>
      <path class="cls-12" d="M179.4,146.7c0,.4.4.8.8.8s.8-.4.8-.8-.4-.8-.8-.8c-.4,0-.8.4-.8.8Z"/>
      <path class="cls-12" d="M192.4,291.3h-91.9v3.6h91.9v-3.6Z"/>
      <path class="cls-9" d="M96,302.4h4.5v-18.5h-4.5v18.5Z"/>
      <path class="cls-11" d="M192.4,304.2h-91.9v18.5h91.9v-18.5Z"/>
      <path class="cls-12" d="M187.2,126.4c0,.4.4.8.8.8s.8-.4.8-.8-.4-.8-.8-.8c-.4,0-.8.4-.8.8Z"/>
      <path class="cls-12" d="M183.3,126.4c0,.4.4.8.8.8s.8-.4.8-.8-.4-.8-.8-.8c-.4,0-.8.4-.8.8Z"/>
      <path class="cls-6" d="M179.4,126.4c0,.4.4.8.8.8s.8-.4.8-.8-.4-.8-.8-.8c-.4,0-.8.4-.8.8Z"/>
      <path class="cls-12" d="M192.4,311.6h-91.9v3.6h91.9v-3.6Z"/>
      <path class="cls-9" d="M96,322.7h4.5v-18.5h-4.5v18.5Z"/>
      <path class="cls-12" d="M182.8,51.3c0-8.1-6.7-14.7-14.8-14.7s-3.8.4-5.6,1.1c-2.9-6-9-10.1-16.1-10.1s-15.7,6-17.5,14c-8.1.5-14.4,7.2-14.4,15.4s6.9,15.4,15.4,15.4h49.1c6,0,10.9-4.9,10.9-10.9s-2.9-8.6-7-10.2Z"/>
      <path class="cls-12" d="M422.3,36.6c0-10.8-8.8-19.5-19.6-19.5s-5.1.5-7.3,1.4c-3.9-7.9-12-13.3-21.3-13.3s-20.8,7.9-23.2,18.6c-10.7.7-19.1,9.5-19.1,20.4s9.1,20.4,20.4,20.4h65c8,0,14.5-6.5,14.5-14.5,0-6.2-3.9-11.4-9.3-13.5Z"/>
      <path class="cls-12" d="M250,383.7c107.1,0,193.9-5.1,193.9-11.3s-86.8-11.3-193.9-11.3-193.9,5.1-193.9,11.3,86.8,11.3,193.9,11.3Z"/>
      <path class="cls-1" d="M86.5,357.6v-1.5h-9c-.4,0-.8.3-.8.8s.3.8.8.8h9Z"/>
      <path class="cls-1" d="M86.5,364.1v-1.5h-9c-.4,0-.8.3-.8.8s.3.8.8.8h9Z"/>
      <path class="cls-4" d="M83.3,352.4c-.7,0-1.3.6-1.3,1.3v13.2c0,.7.6,1.3,1.3,1.3s1.3-.6,1.3-1.3v-13.2c0-.7-.6-1.3-1.3-1.3Z"/>
      <path class="cls-4" d="M86.9,354.2h-3.6v12.1h3.6c3.3,0,6-2.7,6-6s-2.7-6-6-6Z"/>
      <path class="cls-4" d="M115.1,368.5c-2.6,0-5.1-.3-7.7-.6l-4.4-.5c-.7,0-1.4,0-2.1.2-1,.1-2.1.3-3.1.4-1.9.3-3.8.6-5.8.5-.4,0-.8,0-1.2-.2-.5-.2-.8-.7-.8-1.2,0-.5.3-.9.8-1.1.4-.2.8-.2,1.1-.3,2.2-.2,4.5,0,6.6.3l4.5.5c1.8,0,3.6,0,5.3,0,2.2,0,4.4.1,6.8,0,2-.2,3.4-.8,3.5-1.1-.4-.5-1.5-.7-3.8-1-1.7-.2-3.8-.3-6.1-.3-1.8,0-3.6,0-5.5-.2-3.8-.3-8.6-.9-12.8-3.3-.2-.1-.3-.4-.2-.6.1-.2.4-.3.6-.2,4,2.3,8.7,2.9,12.4,3.2,1.9.1,3.7.2,5.5.2,2.3,0,4.4.1,6.2.3,1.3.2,2.3.3,3,.5,0,0,0-.1-.1-.1-.3-.4-.7-.9-1-1.3-.4-.6-.8-1.3-1-2-.2-.9,0-1.8.5-2.4.6-.7,1.7-.9,2.4-1,2.1-.2,4.2,0,6.2.4.2,0,.4.3.4.5,0,.2-.3.4-.5.4-2-.3-4-.6-6-.4-.6,0-1.4.2-1.8.7-.3.4-.4,1-.3,1.6.1.6.5,1.2.8,1.8.3.4.6.9.9,1.3.2.3.4.5.6.8h.1c.4.7,1.1,1.6.9,2.5-.3,1.9-3,2-4.3,2-.2,0-.5,0-.7,0ZM111,367.4c1.6.1,3.1.2,4.7.2,1.1,0,3.3,0,3.5-1.3,0-.1,0-.3,0-.4-.7.8-2.7,1.2-4,1.3-1.4.1-2.8.1-4.2.1ZM93.5,366.4c-.5,0-1,0-1.5,0-.3,0-.6,0-.8.2-.2,0-.3.3-.3.4,0,.1.1.3.3.4.2.1.5.1.8.1,1.9,0,3.8-.2,5.6-.5.4,0,.8-.1,1.3-.2h-.5c-1.6-.3-3.3-.5-4.9-.5Z"/>
      <path d="M220.1,127.1h-89.8c-3.9,3.9-6.1,6.1-10,10v222.7c3.9,3.9,6.1,6.1,10,10h89.8c3.9-3.9,6.1-6.1,10-10v-222.7l-10-10Z"/>
      <path class="cls-1" d="M104.2,146.5l-2,2.8-5.1-7.3,3.9,14.4,2-2.8,5.1,7.3-3.8-14.4Z"/>
      <path class="cls-1" d="M181.1,98.3l-3,1.6-1.3-8.9-3,14.6,3-1.6,1.3,8.9,3-14.6Z"/>
      <path class="cls-1" d="M206.6,102.3l-4.6-1.1,6.5-10.6-16.2,12.8,4.6,1.1-6.5,10.6,16.2-12.8Z"/>
      <path class="cls-5" d="M120.3,359.9l10,10h39.8l-10-10h-39.8Z"/>
      <path class="cls-5" d="M120.3,137.1l10-10h39.8l-10,10h-39.8Z"/>
      <path class="cls-4" d="M260,127.1h-89.8c-3.9,3.9-6.1,6.1-10,10v222.7c3.9,3.9,6.1,6.1,10,10h89.8l10-10v-222.7c-3.9-3.9-6.1-6.1-10-10Z"/>
      <path class="cls-3" d="M171.4,365.2l-6.6-6.6v-220.2l6.6-6.6h87.2l6.6,6.6v220.2l-6.6,6.6h-87.2Z"/>
      <path class="cls-4" d="M265.3,143.7h-95.8v19.3h95.8v-19.3Z"/>
      <path class="cls-1" d="M259.9,148.7c0-.5.4-.8.8-.8s.8.4.8.8-.4.8-.8.8-.8-.4-.8-.8Z"/>
      <path class="cls-6" d="M255.9,148.7c0-.5.4-.8.8-.8s.8.4.8.8-.4.8-.8.8-.8-.4-.8-.8Z"/>
      <path class="cls-1" d="M251.8,148.7c0-.5.4-.8.8-.8s.8.4.8.8-.4.8-.8.8-.8-.4-.8-.8Z"/>
      <path class="cls-1" d="M265.3,151.4h-95.8v3.7h95.8v-3.7Z"/>
      <path d="M164.8,163h4.7v-19.3h-4.7v19.3Z"/>
      <path class="cls-4" d="M265.3,164.8h-95.8v19.3h95.8v-19.3Z"/>
      <path class="cls-1" d="M260.7,170.7c.5,0,.8-.4.8-.8s-.4-.8-.8-.8-.8.4-.8.8.4.8.8.8Z"/>
      <path class="cls-6" d="M256.7,170.7c.5,0,.8-.4.8-.8s-.4-.8-.8-.8-.8.4-.8.8.4.8.8.8Z"/>
      <path class="cls-6" d="M252.7,170.7c.5,0,.8-.4.8-.8s-.4-.8-.8-.8-.8.4-.8.8.4.8.8.8Z"/>
      <path class="cls-1" d="M265.3,172.6h-95.8v3.7h95.8v-3.7Z"/>
      <path d="M164.8,184.1h4.7v-19.3h-4.7v19.3Z"/>
      <path class="cls-4" d="M265.3,186h-95.8v19.3h95.8v-19.3Z"/>
      <path class="cls-1" d="M260.7,191.9c.5,0,.8-.4.8-.8s-.4-.8-.8-.8-.8.4-.8.8.4.8.8.8Z"/>
      <path class="cls-1" d="M256.7,191.9c.5,0,.8-.4.8-.8s-.4-.8-.8-.8-.8.4-.8.8.4.8.8.8Z"/>
      <path class="cls-1" d="M252.7,191.9c.5,0,.8-.4.8-.8s-.4-.8-.8-.8-.8.4-.8.8.4.8.8.8Z"/>
      <path class="cls-1" d="M265.3,193.7h-95.8v3.7h95.8v-3.7Z"/>
      <path d="M164.8,205.3h4.7v-19.3h-4.7v19.3Z"/>
      <path class="cls-4" d="M265.3,207.1h-95.8v19.3h95.8v-19.3Z"/>
      <path class="cls-6" d="M260.7,213c.5,0,.8-.4.8-.8s-.4-.8-.8-.8-.8.4-.8.8.4.8.8.8Z"/>
      <path class="cls-6" d="M256.7,213c.5,0,.8-.4.8-.8s-.4-.8-.8-.8-.8.4-.8.8.4.8.8.8Z"/>
      <path class="cls-1" d="M252.7,213c.5,0,.8-.4.8-.8s-.4-.8-.8-.8-.8.4-.8.8.4.8.8.8Z"/>
      <path class="cls-1" d="M265.3,214.9h-95.8v3.7h95.8v-3.7Z"/>
      <path d="M164.8,226.4h4.7v-19.3h-4.7v19.3Z"/>
      <path class="cls-4" d="M265.3,228.3h-95.8v19.3h95.8v-19.3Z"/>
      <path class="cls-6" d="M259.9,233.3c0-.5.4-.8.8-.8s.8.4.8.8-.4.8-.8.8-.8-.4-.8-.8Z"/>
      <path class="cls-6" d="M255.9,233.3c0-.5.4-.8.8-.8s.8.4.8.8-.4.8-.8.8-.8-.4-.8-.8Z"/>
      <path class="cls-6" d="M251.8,233.3c0-.5.4-.8.8-.8s.8.4.8.8-.4.8-.8.8-.8-.4-.8-.8Z"/>
      <path class="cls-1" d="M265.3,236.1h-95.8v3.7h95.8v-3.7Z"/>
      <path d="M164.8,247.6h4.7v-19.3h-4.7v19.3Z"/>
      <path class="cls-4" d="M265.3,249.4h-95.8v19.3h95.8v-19.3Z"/>
      <path class="cls-1" d="M259.9,254.5c0-.5.4-.8.8-.8s.8.4.8.8-.4.8-.8.8-.8-.4-.8-.8Z"/>
      <path class="cls-6" d="M255.9,254.5c0-.5.4-.8.8-.8s.8.4.8.8-.4.8-.8.8-.8-.4-.8-.8Z"/>
      <path class="cls-1" d="M251.8,254.5c0-.5.4-.8.8-.8s.8.4.8.8-.4.8-.8.8-.8-.4-.8-.8Z"/>
      <path class="cls-1" d="M265.3,257.2h-95.8v3.7h95.8v-3.7Z"/>
      <path d="M164.8,268.7h4.7v-19.3h-4.7v19.3Z"/>
      <path class="cls-4" d="M265.3,270.6h-95.8v19.3h95.8v-19.3Z"/>
      <path class="cls-6" d="M260.7,276.5c.5,0,.8-.4.8-.8s-.4-.8-.8-.8-.8.4-.8.8.4.8.8.8Z"/>
      <path class="cls-6" d="M256.7,276.5c.5,0,.8-.4.8-.8s-.4-.8-.8-.8-.8.4-.8.8.4.8.8.8Z"/>
      <path class="cls-1" d="M252.7,276.5c.5,0,.8-.4.8-.8s-.4-.8-.8-.8-.8.4-.8.8.4.8.8.8Z"/>
      <path class="cls-1" d="M265.3,278.4h-95.8v3.7h95.8v-3.7Z"/>
      <path d="M164.8,289.9h4.7v-19.3h-4.7v19.3Z"/>
      <path class="cls-4" d="M265.3,291.7h-95.8v19.3h95.8v-19.3Z"/>
      <path class="cls-6" d="M260.7,297.7c.5,0,.8-.4.8-.8s-.4-.8-.8-.8-.8.4-.8.8.4.8.8.8Z"/>
      <path class="cls-1" d="M256.7,297.7c.5,0,.8-.4.8-.8s-.4-.8-.8-.8-.8.4-.8.8.4.8.8.8Z"/>
      <path class="cls-6" d="M252.7,297.7c.5,0,.8-.4.8-.8s-.4-.8-.8-.8-.8.4-.8.8.4.8.8.8Z"/>
      <path class="cls-1" d="M265.3,299.5h-95.8v3.7h95.8v-3.7Z"/>
      <path d="M164.8,311h4.7v-19.3h-4.7v19.3Z"/>
      <path class="cls-4" d="M265.3,312.9h-95.8v19.3h95.8v-19.3Z"/>
      <path class="cls-1" d="M260.7,318.8c.5,0,.8-.4.8-.8s-.4-.8-.8-.8-.8.4-.8.8.4.8.8.8Z"/>
      <path class="cls-6" d="M256.7,318.8c.5,0,.8-.4.8-.8s-.4-.8-.8-.8-.8.4-.8.8.4.8.8.8Z"/>
      <path class="cls-1" d="M252.7,318.8c.5,0,.8-.4.8-.8s-.4-.8-.8-.8-.8.4-.8.8.4.8.8.8Z"/>
      <path class="cls-1" d="M265.3,320.7h-95.8v3.7h95.8v-3.7Z"/>
      <path d="M164.8,332.2h4.7v-19.3h-4.7v19.3Z"/>
      <path class="cls-4" d="M265.3,334.1h-95.8v19.3h95.8v-19.3Z"/>
      <path class="cls-1" d="M260.7,340c.5,0,.8-.4.8-.8s-.4-.8-.8-.8-.8.4-.8.8.4.8.8.8Z"/>
      <path class="cls-1" d="M256.7,340c.5,0,.8-.4.8-.8s-.4-.8-.8-.8-.8.4-.8.8.4.8.8.8Z"/>
      <path class="cls-6" d="M252.7,340c.5,0,.8-.4.8-.8s-.4-.8-.8-.8-.8.4-.8.8.4.8.8.8Z"/>
      <path class="cls-1" d="M265.3,341.8h-95.8v3.7h95.8v-3.7Z"/>
      <path d="M164.8,353.3h4.7v-19.3h-4.7v19.3Z"/>
      <path class="cls-2" d="M171.4,365.2l-6.6-6.6v-220.2l6.6-6.6h51.7l6.6,6.6v220.2l-6.6,6.6h-51.7Z"/>
      <path class="cls-1" d="M223.1,365.2l6.6-6.6v-220.2l-6.6-6.6h2.6l5.7,5.7v222l-5.7,5.7h-2.6Z"/>
      <path class="cls-10" d="M358.2,135.8c2.2,4.3,4.1,8.5,5.9,12.9.9,2.2,1.7,4.4,2.5,6.7.8,2.3,1.5,4.7,2,7.3v.5c0,0,.1.3.1.3v.4c0,.2.1.5.1.7v.7c0,.9,0,1.6,0,2.3-.2,1.4-.4,2.7-.7,3.9-.6,2.5-1.4,4.8-2.2,7-1.7,4.5-3.7,8.8-5.9,13-.7,1.3-2.4,1.8-3.7,1.1-1.1-.6-1.6-1.9-1.4-3h0c1-4.5,2.1-9,3-13.3.5-2.2.8-4.4,1.1-6.4.1-1,.2-2,.2-2.9,0-.4,0-.8,0-1.1v-.2s0-.1,0-.1v-.2c0,0-.2-.3-.2-.3-.5-1.8-1.3-3.9-2.1-5.9-.8-2-1.7-4.1-2.6-6.1-1.8-4.1-3.8-8.2-5.7-12.3h0c-1.3-2.8-.1-6.1,2.6-7.4,2.7-1.3,5.9-.2,7.2,2.5Z"/>
      <path class="cls-10" d="M353.3,191l3.4-5,3.4-1c1.6,1.9,1.1,4.8.7,6.5h0l-1,6.3c-.2,1.2-1.1,2.1-2.3,2.2l-2.2.3c-1.7.2-3.2-1-3.3-2.6v-1.1c-.3-2,.3-3.9,1.4-5.5Z"/>
      <path class="cls-4" d="M347.8,204.5c.8-1,1.2-2.2,1.2-3.4l16.8-7.8s0,0,.1.1c2.1,1.8,5.3,1.5,7.1-.6.4-.5.7-1,.9-1.5l-3.7.5c-1,.1-1.9-.6-1.9-1.6v-1.3c-.2-1,.6-1.8,1.5-1.9h3.7c-.3-.6-.7-1.1-1.1-1.4-2.1-1.8-5.3-1.5-7.1.6-.8,1-1.2,2.2-1.2,3.4l-16.8,7.8s0,0-.1-.1c-2.1-1.8-5.3-1.5-7.1.6-.4.5-.7,1-.9,1.5l3.7-.5c1-.1,1.9.6,1.9,1.6v1.3c.2,1-.6,1.8-1.5,1.9h-3.7c.3.6.7,1.1,1.1,1.4,2.1,1.8,5.3,1.5,7.1-.6Z"/>
      <path class="cls-7" d="M348.6,199.1c-.2-.5,0-1.1.5-1.3l13.5-6.2c.5-.2,1.1,0,1.3.5.2.5,0,1.1-.5,1.3l-13.5,6.2c-.5.2-1.1,0-1.3-.5Z"/>
      <path class="cls-4" d="M346.3,125.4c6,1.3,9,4.4,14.8,14.1-3.3,4.9-11.4,9.1-11.4,9.1l-3.5-4c-4.4-8.1,0-19.2,0-19.2Z"/>
      <path class="cls-8" d="M344.3,136.5c0,2.7.5,5.6,1.9,8.1l3.5,4s1.3-.7,3-1.8c-2.9-5.7-5.1-8.6-8.4-10.4Z"/>
      <path class="cls-10" d="M318.6,134.7v.6c-.1,0-.2.5-.2.5l-.2.9c-.2.6-.3,1.1-.5,1.7-.4,1.1-.8,2.1-1.4,3.2-1.1,2-2.4,4-4,5.6-1.6,1.7-3.5,3.1-5.5,4.3-2,1.1-4.2,1.9-6.3,2.5h-.4c-2.6.7-5.2-.8-5.9-3.4,0-.2-.1-.5-.1-.7-.2-2.2,0-4.2.4-6,.4-1.8.9-3.6,1.5-5.2,1.2-3.3,2.7-6.2,4.3-9.1,1.6-2.8,3.4-5.6,5.3-8.2,1.9-2.6,3.9-5.1,6.1-7.5,1-1.1,2.7-1.2,3.9-.2,1,.9,1.2,2.3.5,3.4h0c-1.5,2.7-3.1,5.4-4.4,8.1-1.4,2.7-2.7,5.4-3.9,8.2-1.2,2.7-2.2,5.5-2.9,8.2-.7,2.6-1.1,5.4-.7,7.2l-6.4-4.2c1.3-.5,2.6-1.2,3.7-1.9,1.1-.8,2.1-1.7,2.9-2.7.8-1,1.6-2.1,2.2-3.3.3-.6.6-1.2.8-1.9.1-.3.2-.6.3-.9v-.4c.1,0,.2-.2.2-.2,0,0,0-.2,0,0,.5-3,3.3-5.1,6.3-4.6,3,.5,5.1,3.3,4.6,6.3Z"/>
      <path class="cls-4" d="M321.1,134c.6-3.8-2-8.3-2-8.3-6,.3-11.7,1.7-17.2,13.1,1.3,6.3,9.7,10.7,9.7,10.7l5.9-7.6s3.1-4.1,3.7-7.9Z"/>
      <path class="cls-10" d="M313.2,111l1.7-1.8c.7-.8,1.6-1.4,2.6-1.7l1.6-.6c1.8-.6,3.7.5,4.1,2.3l.4,2.1c.3,1.6-.6,3.1-2.2,3.5l-2.4.7s-2.9,4.8-8.5,2.7c0-2.6,1-5.2,2.8-7.2Z"/>
      <path class="cls-10" d="M356.8,354.2h-8.3s.4,6.1.4,9.7l7.3.9c-.6-4,.6-10.6.6-10.6Z"/>
      <path class="cls-1" d="M320.2,183.1s14.9,63.3,19.6,89c4.9,27,8.2,81.2,8.2,83.1,2.7-.5,7-.6,9.1,0,0,0,10.3-63.7,1-87.3-3.5-44.8,1-70.2-8-84.8h-30Z"/>
      <path class="cls-8" d="M339.2,202.7c-2.4-10-10.7-9-16.1-7.2,3.4,14.4,8.9,38.8,13,58.1,5.8-13.9,6.4-37.4,3.1-50.9Z"/>
      <path class="cls-10" d="M303.8,353.2c-.8,9.7-8.6,20.1-8.6,20.1l12.1-3.1,5.1-7.6c.2-3,.2-5.4,1.1-8.5l-9.7-.8Z"/>
      <path class="cls-1" d="M308,183.1s2.1,67.3,1.6,87c-.8,27.3-6.5,85.2-6.5,85.2,4.3-.4,8.1-.6,10.5,0,0,0,18-46.9,15.9-84.9,4.5-35.3,19.7-67.6,10.3-87.2h-31.7Z"/>
      <path class="cls-10" d="M340.1,107.1c-1.2,5.1-2.5,14.5.9,17.9,0,0-3.9,6.8-12.7,10.4-6.7-4.3-3.2-10.4-3.2-10.4,5.7-1.4,5.7-5.6,4.9-9.5l10-8.3Z"/>
      <path class="cls-1" d="M341.1,119.7s-11.6-1.6-17.3,3.2c-.1,2-1.4,3.2-1.4,3.2,6.2,1.4,12.5,1.7,18.9.9,1.5-2.6-.2-7.2-.2-7.2Z"/>
      <path class="cls-4" d="M309.2,136.9c.6,16-2.9,40.3-1.2,46.1,17.2,1.7,30.6,1.4,42.1,0,2-6.3-2.8-25.1,2.7-47.5,1.2-5-2.1-9.7-7.2-10.3-1.5-.2-3.1-.3-4.7-.4-5.9-.3-10.7-.5-15.9,0-2,.2-4.1.5-6.1.7-5.6.8-10.1,5.6-9.8,11.2Z"/>
      <path class="cls-4" d="M321.2,98.5c0,.7-.5,1.2-.9,1.2-.4,0-.8-.6-.7-1.3,0-.7.5-1.2.9-1.2.4,0,.8.6.7,1.3Z"/>
      <path class="cls-4" d="M320.7,97.3l-1.6-.6s.7,1.4,1.6.6Z"/>
      <path class="cls-4" d="M320.3,94c0,0-.2,0-.2-.2-.1-.2,0-.4.1-.6,1.9-1.2,3.6-.5,3.7-.4.2,0,.3.3.2.5,0,.2-.3.3-.5.2,0,0-1.4-.6-2.9.4,0,0-.2,0-.3,0Z"/>
      <path class="cls-13" d="M321.1,100.4s-1.4,2.9-2.9,4.3c.8.9,2.4.6,2.4.6l.5-4.9Z"/>
      <path class="cls-10" d="M344.7,97.1c-1.3,8.5-1.7,12.1-6.4,16.2-7,6.2-17.1,3.1-18.3-5.6-1.1-7.8,1.3-20.4,9.8-23.3,8.5-2.8,16.1,4.1,14.8,12.6Z"/>
      <path class="cls-4" d="M323.5,87.5c-1.7,3.4,1.7,9.6,3.9,12.2-4,4.3-8,11.8-2.7,16.3,4.9,4.1,30.9,4,25.8-4.7,4.5-5.5-3-6.3.6-17,2.6-7.8-2.3-9.9-6.7-9.2-5-6.3-17.4-4.6-21,2.4Z"/>
      <path class="cls-9" d="M325.4,91s8.1,6.6,17.3,7.7c5,.6,7.5.5,7.7-.2.2-.8.7-3.3.7-3.3l-25.7-4.1Z"/>
      <path class="cls-1" d="M318.6,89.3c2.4,1.9,20.9,7.2,33.3,6,.1-.7-.3-.8-.3-.8,0,0,2.9-9.6-3.7-13.2-3.1-5.1-12.5-4.8-16.6-3.3l-.6.7s-8.1,1.9-8.2,8.6c-3.2.4-6.6-.2-3.9,2Z"/>
      <path class="cls-8" d="M330.7,78.7l.6-.7s6.5-.8,12,4c-3.1-1.8-8.3-3.6-12.6-3.2Z"/>
      <path class="cls-10" d="M326.2,97c-1.8-.2-3.4,2.3-4.1,4.2-.7,2.1,0,4,1.9,3.3,1.2-.4,2.6-1.5,3.4-3.1,1-1.8.5-4.1-1.3-4.3Z"/>
      <path class="cls-4" d="M351.4,358.3c5.1-.9,5,1.7,5.3,4.6.2,1.6,0,3.5-.8,5-1.8,3.2-.3,7.8-6,7.8s-6.2-1.3-4.7-4.2c1.5-2.8,2.3-5.8,3-9.1.3-1.6.9-3.8,3.2-4.2Z"/>
      <path class="cls-4" d="M356.4,364.4c0,3.4,0,11.4,0,11.4h-.9s-.8-8.5-1.3-10.8l2.1-.6Z"/>
      <path class="cls-4" d="M313.1,359.5c.4.9.5,1.9.5,2.9-.2,3.6-1,13.2-1,13.2h-.8s.2-6.5,0-8.9c-.3-2.4-1.5,1.8-3.2,4.2-1.7,2.4-4.8,4.6-10.2,4.7-6.3.2-8.9,0-7-1.7,1.9-1.6,6.1-2.6,6.1-2.6,0,0,4.8-1.8,7.9-7.2,2-3.5,5-5.1,6.6-5.9.5,0,.9.5,1.1,1.1Z"/>
    </g>
  </g>
</svg>
