<?xml version="1.0" encoding="UTF-8"?>
<svg xmlns="http://www.w3.org/2000/svg" version="1.1" viewBox="0 0 508.7 367">
  <defs>
    <style>
      .cls-1 {
        fill: #ecf1f7;
      }

      .cls-2, .cls-3 {
        fill: #fff;
      }

      .cls-4 {
        opacity: .4;
      }

      .cls-4, .cls-5, .cls-6, .cls-7, .cls-8, .cls-3 {
        isolation: isolate;
      }

      .cls-4, .cls-7, .cls-9 {
        fill: #ef929c;
      }

      .cls-10, .cls-8 {
        fill: #3e479b;
      }

      .cls-11 {
        fill: #e2e2e2;
      }

      .cls-5, .cls-6 {
        opacity: .5;
      }

      .cls-5, .cls-12 {
        fill: #599af2;
      }

      .cls-6, .cls-13 {
        fill: #4c65ba;
      }

      .cls-7 {
        opacity: .7;
      }

      .cls-14 {
        fill: #f9dcd2;
      }

      .cls-15 {
        fill: #373449;
      }

      .cls-8 {
        opacity: .8;
      }

      .cls-3 {
        opacity: .1;
      }
    </style>
  </defs>
  <!-- Generator: Adobe Illustrator 28.6.0, SVG Export Plug-In . SVG Version: 1.2.0 Build 709)  -->
  <g>
    <g id="Layer_1">
      <g>
        <g id="Layer_1-2" data-name="Layer_1">
          <g id="OBJECTS">
            <g>
              <g>
                <path class="cls-6" d="M330.9,8.9h123.5c1.2,0,2.1.9,2.1,2.1v40.6c0,1.2-.9,2.1-2.1,2.1h-89l-20.4,20.4v-20.4h-14.2c-1.2,0-2.1-.9-2.1-2.1V11c0-1.2.9-2.1,2.1-2.1h0Z"/>
                <g>
                  <path class="cls-2" d="M348.6,22.4h87.7c.6,0,1-.3,1-.6s-.5-.6-1-.6h-87.7c-.6,0-1,.3-1,.6s.5.6,1,.6Z"/>
                  <path class="cls-2" d="M348.6,43.2h87.7c.6,0,1-.3,1-.6s-.5-.6-1-.6h-87.7c-.6,0-1,.3-1,.6s.5.6,1,.6Z"/>
                  <g>
                    <path class="cls-2" d="M390.5,32.4h45.8c.6,0,1-.3,1-.6s-.5-.6-1-.6h-45.8c-.6,0-1,.3-1,.6s.5.6,1,.6Z"/>
                    <path class="cls-2" d="M361.9,32.4h19.9c.6,0,1-.3,1-.6s-.5-.6-1-.6h-19.9c-.6,0-1,.3-1,.6s.5.6,1,.6Z"/>
                  </g>
                </g>
              </g>
              <g>
                <path class="cls-5" d="M413.6,137.4h62.5c2.8,0,5-2.3,5-5v-19.8c0-2.8-2.3-5-5-5h-62.5c-2.8,0-5,2.3-5,5v19.8c0,2.8,2.3,5,5,5Z"/>
                <g>
                  <g>
                    <path class="cls-2" d="M425.6,113.9h74.5c2.3,0,4.1-1.9,4.1-4.1v-22.9c0-2.3-1.9-4.1-4.1-4.1h-74.5c-2.3,0-4.1,1.9-4.1,4.1v22.9c0,2.3,1.9,4.1,4.1,4.1Z"/>
                    <path class="cls-7" d="M425.6,113.9h74.5c2.3,0,4.1-1.9,4.1-4.1v-22.9c0-2.3-1.9-4.1-4.1-4.1h-74.5c-2.3,0-4.1,1.9-4.1,4.1v22.9c0,2.3,1.9,4.1,4.1,4.1Z"/>
                  </g>
                  <g>
                    <path class="cls-2" d="M478,102c-2,0-3.6-1.7-3.6-3.6s1.7-3.6,3.6-3.6,3.6,1.7,3.6,3.6-1.7,3.6-3.6,3.6ZM478,95.6c-1.5,0-2.7,1.2-2.7,2.7s1.2,2.7,2.7,2.7,2.7-1.2,2.7-2.7-1.2-2.7-2.7-2.7Z"/>
                    <path class="cls-2" d="M463.1,102c-2,0-3.6-1.7-3.6-3.6s1.7-3.6,3.6-3.6,3.6,1.7,3.6,3.6-1.7,3.6-3.6,3.6ZM463.1,95.6c-1.5,0-2.7,1.2-2.7,2.7s1.2,2.7,2.7,2.7,2.7-1.2,2.7-2.7-1.2-2.7-2.7-2.7Z"/>
                    <path class="cls-2" d="M449.3,102c-2,0-3.6-1.7-3.6-3.6s1.7-3.6,3.6-3.6,3.6,1.7,3.6,3.6-1.7,3.6-3.6,3.6ZM449.3,95.6c-1.5,0-2.7,1.2-2.7,2.7s1.2,2.7,2.7,2.7,2.7-1.2,2.7-2.7-1.2-2.7-2.7-2.7Z"/>
                  </g>
                </g>
              </g>
            </g>
            <g>
              <g>
                <g>
                  <path class="cls-15" d="M449.4,355.6h.2v1.9l-20.8.3v-1.4c0-.2.2-.4.4-.5h.2l20.1-.3h0Z"/>
                  <path class="cls-15" d="M442.1,348.6h6.8c0,.2.2.4.2.6v3.1c0,0,0,3.3,0,3.3,0,0-20,.3-20,.3h-.2c.5-1.5,1.6-2.6,3.1-3l4.6-.4c1.1-.6,2.1-1.1,3.2-1.6l1.9-2.3h.4Z"/>
                </g>
                <path class="cls-15" d="M486.5,278.5l-14.7-42.1-.2-1.6h-40.1v22.1c0,2.9,0,5.6.4,8.5l7.7,84.8h11l2.8-96.4h.6l15.7,31.1-11.7,26.5c-.2.4,0,.8.3,1l7.4,5.7c.6.5,1.5.3,1.9-.4l18.5-32.7c1.2-2,1.4-4.4.6-6.6h0Z"/>
                <g>
                  <path class="cls-15" d="M455.2,316.9h0c0,0-1.3,1.3-1.3,1.3l14.6,14.9,1-1c.2-.2.2-.4,0-.6h0c0,0-14.1-14.5-14.1-14.5h-.2Z"/>
                  <path class="cls-15" d="M465.3,317.1l-4.4-4.4c0,0-.2-.2-.4-.2h-.2c-.2,0-.3,0-.5.2l-.5.5-1.8,1.6-2.4,2.2,14.1,14.4h0c.7-1.3.7-2.9,0-4.1l-3.1-3.5c-.4-1.2-.7-2.2-1.1-3.4l.3-3h0v-.2h0Z"/>
                </g>
              </g>
              <g>
                <path class="cls-14" d="M481.6,193.7c-.6-1.1-7.5,5.5-9.1,12,0,.3,0-.2,0,0l5.8,8.3-15.9,17.7,4,3.1s23.1-15.1,24.4-20.6c1-3.9-6.5-15.5-9.5-20.6h0Z"/>
                <g>
                  <path class="cls-14" d="M396.8,191.8c-.4-.9-1.2-2.1-3.2-3.6l-3.5-3.1c-.3-.2-.6-.3-.9,0h0c-.3.3-.4.7-.2,1l1.6,2.6c.3.5,0,1.1-.6,1.1l-3.6-.3h0l-4.6-1.1c-.4,0-.7,0-.8.5v.2c-.2.4,0,.8.5.9l4.8,1.5-5.9-.9c-.4,0-.8.2-.8.6h0c0,.4.2.8.6.9l6,1.5-5.2-.6c-.5,0-.8.4-.7.8v.2c0,.3.3.5.6.6l5.1,1-3.6.2c-.3,0-.6.2-.6.5,0,.4.2.8.7.9l3.9.4h0c.5,0,6.9,1.5,9.4,1.6h0l26,2.5h.2c-1.3-3.8-2.1-7.9-2.4-11.8l-22.5,2.5v-.3Z"/>
                  <path class="cls-9" d="M481.9,193.8c-2.8-3.3-5.4-6.2-7.1-7.8-4.3-4.1-12.4-3.6-12.4-3.6l-21.8,1.7c-2.5.2-5,.5-7.5,1-4.8.9-9.2,1.8-14,2.8v1.4c.3,4,1.1,8,2.4,11.8,0,.2,0,.3.2.5,5.5-.6,9.8-1,9.8-1v45.1c0,0,40-9.1,40-9.1l-1.8-33,2.9,1.8c2.7-4.2,5.9-8.1,9.4-11.7v.2Z"/>
                </g>
              </g>
              <g>
                <path class="cls-15" d="M472.9,174.6c-1.8-6-5.3-7.7-7.8-8.2,1.5-2.5,2.6-5.2,2.9-8.3.8-8.7-13.6-23.2-22.1-12.6-2.8,0-6,1.3-9.3,5.2-6.1,7.3-4.2,13.2-2.3,16.4,1,1.5,2.4,2.7,4,3.3l12.8,4.8c2.7,1,5.6.4,7.7-1.5.8-.7,1.7-1.6,2.6-2.6,4.3,1.9,2.3,5.9,2.3,5.9-4.3,9.3,1,13.9,4.9,16.6,1.7,1.2,4,.2,4.4-1.9.8-4.2,1.6-11.2-.2-17.3v.2Z"/>
                <g>
                  <path class="cls-14" d="M460,161.3h-.6l-2.8,4.4c-3.6-1.9-5-6.6-5.4-10.7-3.1,2-7.9,4.2-14.4,4.3l-1.1,10.7c-.6,5.9,4.7,10.3,9.5,10.6v3.5c-.8,4,1.5,7.8,4.8,8.3,3.2.5,6.2-2.1,6.9-5.8l1.3-17.4h1.4c1.5.2,2.7-1,2.8-2.4l.2-2.7c0-1.5-1-2.7-2.5-2.8v-.2Z"/>
                  <polygon class="cls-4" points="453.5 180.7 445 180.8 445 183.8 453.5 180.7"/>
                </g>
                <g>
                  <g>
                    <path class="cls-15" d="M440.4,162.8h-2.1c-.2,0-.5,0-.7,0s-.2-.4,0-.7.8-.7,1.5-.6c.7,0,1.2.5,1.4.8.2.4,0,.6,0,.7h0Z"/>
                    <path class="cls-15" d="M448.8,163.3h-2.1c-.2,0-.5,0-.7,0s-.2-.4,0-.7.8-.7,1.5-.6c.7,0,1.2.5,1.4.8.2.4,0,.6,0,.7h0Z"/>
                    <path class="cls-15" d="M438.5,166.2h0c-.3,0-.5-.3-.5-.6v-1.1c0-.3.4-.5.7-.5h0c.3,0,.5.3.5.6v1.1c0,.3-.4.5-.7.5Z"/>
                    <path class="cls-15" d="M446.7,167h0c-.3,0-.5-.3-.5-.6v-1.1c0-.3.4-.5.7-.5h0c.3,0,.5.3.5.6v1.1c0,.3-.4.5-.7.5Z"/>
                  </g>
                  <path class="cls-9" d="M443,169.1h-.9c-.5,0-1-.4-1.3-.9s-.2-1,0-1.5h0c.8-.4,1.4-1.2,1.5-2v-.3c0,0,.2-.2.3-.2s.2,0,.2.3v.3c-.2,1-.8,1.9-1.7,2.3,0,.3,0,.7,0,1,.2.3.5.5.9.6h.9c0,0,.2.2.2.3s0,.2-.2.2h0Z"/>
                  <path class="cls-2" d="M446.2,173.7h-2.2c-.5-.2-.9-.6-.8-1.1v-2.2c0,0,5.1.3,5.1.3v1.1c0,1.1-1.1,1.9-2.2,1.9Z"/>
                </g>
              </g>
            </g>
            <g>
              <g>
                <path class="cls-8" d="M87.6,137.5H5.9c-.8,0-1.4.6-1.4,1.4v26.9c0,.8.6,1.4,1.4,1.4h58.8l13.5,13.5v-13.5h9.4c.8,0,1.4-.6,1.4-1.4v-26.9c0-.8-.6-1.4-1.4-1.4Z"/>
                <g>
                  <path class="cls-2" d="M75.8,146.6H17.8c-.4,0-.7-.2-.7-.4s.3-.4.7-.4h58c.4,0,.7.2.7.4s-.3.4-.7.4Z"/>
                  <path class="cls-2" d="M75.8,160.3H17.8c-.4,0-.7-.2-.7-.4s.3-.4.7-.4h58c.4,0,.7.2.7.4s-.3.4-.7.4Z"/>
                  <g>
                    <path class="cls-2" d="M48.1,153.1h-30.4c-.4,0-.7-.2-.7-.4s.3-.4.7-.4h30.4c.4,0,.7.2.7.4s-.3.4-.7.4Z"/>
                    <path class="cls-2" d="M67.1,153.1h-13.2c-.4,0-.7-.2-.7-.4s.3-.4.7-.4h13.2c.4,0,.7.2.7.4s-.3.4-.7.4Z"/>
                  </g>
                </g>
              </g>
              <g>
                <path class="cls-5" d="M166.5,119.4H58.1c-4.8,0-8.8-3.9-8.8-8.8v-34.4c0-4.8,3.9-8.8,8.8-8.8h108.4c4.8,0,8.8,3.9,8.8,8.8v34.4c0,4.8-3.9,8.8-8.8,8.8h0Z"/>
                <g>
                  <g>
                    <path class="cls-2" d="M145.4,78.4H16.1c-3.9,0-7.1-3.2-7.1-7.1V31.7c0-3.9,3.2-7.1,7.1-7.1h129.3c3.9,0,7.1,3.2,7.1,7.1v39.6c0,3.9-3.2,7.1-7.1,7.1Z"/>
                    <path class="cls-7" d="M145.4,78.4H16.1c-3.9,0-7.1-3.2-7.1-7.1V31.7c0-3.9,3.2-7.1,7.1-7.1h129.3c3.9,0,7.1,3.2,7.1,7.1v39.6c0,3.9-3.2,7.1-7.1,7.1Z"/>
                  </g>
                  <g>
                    <path class="cls-2" d="M54.5,57.4c-3.3,0-5.9-2.7-5.9-5.9s2.7-5.9,5.9-5.9,5.9,2.7,5.9,5.9-2.7,5.9-5.9,5.9ZM54.5,46.5c-2.8,0-4.9,2.3-4.9,4.9s2.3,4.9,4.9,4.9,4.9-2.3,4.9-4.9-2.3-4.9-4.9-4.9Z"/>
                    <path class="cls-2" d="M80.3,57.4c-3.3,0-5.9-2.7-5.9-5.9s2.7-5.9,5.9-5.9,5.9,2.7,5.9,5.9-2.7,5.9-5.9,5.9ZM80.3,46.5c-2.8,0-4.9,2.3-4.9,4.9s2.3,4.9,4.9,4.9,4.9-2.3,4.9-4.9-2.3-4.9-4.9-4.9Z"/>
                    <path class="cls-2" d="M104.3,57.4c-3.3,0-5.9-2.7-5.9-5.9s2.7-5.9,5.9-5.9,5.9,2.7,5.9,5.9-2.7,5.9-5.9,5.9ZM104.3,46.5c-2.8,0-4.9,2.3-4.9,4.9s2.3,4.9,4.9,4.9,4.9-2.3,4.9-4.9-2.3-4.9-4.9-4.9Z"/>
                  </g>
                </g>
              </g>
            </g>
            <g>
              <g>
                <rect class="cls-10" x="225.8" y="301.7" width="64.5" height="47.2"/>
                <path class="cls-10" d="M410.1,286.7H106c-4.5,0-8.2-3.6-8.2-8.2V98.5c0-4.5,3.6-8.2,8.2-8.2h304.1c4.5,0,8.2,3.6,8.2,8.2v180c0,4.5-3.6,8.2-8.2,8.2h0Z"/>
                <path class="cls-13" d="M408.7,306.3H107.4c-5.2,0-9.6-5-9.6-11.2v-29.1h320.4v29.1c0,6.2-4.2,11.2-9.6,11.2h0Z"/>
                <path class="cls-2" d="M402.7,265.2H113.5c-1,0-1.8-.8-1.8-1.8V105.7c0-1,.8-1.8,1.8-1.8h289.2c1,0,1.8.8,1.8,1.8v157.9c0,1-.8,1.8-1.8,1.8h0Z"/>
                <path class="cls-2" d="M258,298.2c-6.5,0-11.7-5.2-11.7-11.7s5.2-11.7,11.7-11.7,11.7,5.2,11.7,11.7-5.2,11.7-11.7,11.7ZM258,275.7c-5.9,0-10.7,4.8-10.7,10.7s4.8,10.7,10.7,10.7,10.7-4.8,10.7-10.7-4.8-10.7-10.7-10.7Z"/>
                <path class="cls-13" d="M326.6,357h-137.2v-2c0-6.5,5.3-11.8,11.8-11.8h113.5c6.5,0,11.8,5.3,11.8,11.8v2h0Z"/>
                <g>
                  <path class="cls-5" d="M402.7,120.4H113.5c-1,0-1.8-.8-1.8-1.8v-13c0-1,.8-1.8,1.8-1.8h289.2c1,0,1.8.8,1.8,1.8v13c0,1-.8,1.8-1.8,1.8Z"/>
                  <path class="cls-1" d="M376.4,111.9c0,.8-.7,1.5-1.5,1.5s-1.5-.7-1.5-1.5.7-1.5,1.5-1.5,1.5.7,1.5,1.5Z"/>
                  <path class="cls-1" d="M392.4,111.9c0,.8-.7,1.5-1.5,1.5s-1.5-.7-1.5-1.5.7-1.5,1.5-1.5,1.5.7,1.5,1.5Z"/>
                  <circle class="cls-1" cx="382.9" cy="111.9" r="1.5"/>
                </g>
              </g>
              <g>
                <path class="cls-12" d="M121.1,279.2l1.6-4.4c.7-2,2.6-3.3,4.6-3.3h38.5c2.8,0,4.9,2.2,4.9,4.9v76.7c0,2.8-2.2,4.9-4.9,4.9H49.4c-2.8,0-4.9-2.2-4.9-4.9v-65.6c0-2.8,2.2-4.9,4.9-4.9h66.9c2.1,0,3.9-1.3,4.6-3.3h0Z"/>
                <path class="cls-3" d="M123.8,283.8l1.5-4.2c.7-1.9,2.4-3.2,4.3-3.2h36.4c2.6,0,4.6,2.1,4.6,4.6v72.3c0,2.6-2.1,4.6-4.6,4.6H56.4c-2.6,0-4.6-2.1-4.6-4.6v-61.9c0-2.6,2.1-4.6,4.6-4.6h63.1c2,0,3.7-1.3,4.3-3.2h0Z"/>
              </g>
            </g>
          </g>
        </g>
        <g>
          <g>
            <g>
              <rect class="cls-11" x="202.4" y="177.2" width="15.5" height="63.7"/>
              <rect class="cls-11" x="225.5" y="212.7" width="15.5" height="28.3"/>
              <rect class="cls-11" x="290" y="212.7" width="15.5" height="28.3"/>
              <rect class="cls-11" x="246.8" y="190.8" width="15.5" height="50.1"/>
              <rect class="cls-11" x="271.5" y="181.9" width="13.7" height="59"/>
            </g>
            <rect class="cls-11" x="196.2" y="244.2" width="115.4" height="2.4"/>
          </g>
          <g>
            <polygon class="cls-11" points="299.4 204.5 279.4 168.7 251.4 179.6 233.2 192.8 209.7 164.6 209.7 174.7 209 174.7 209 162.4 233.3 191.8 251 178.9 279.7 167.7 299.2 202.4 316.9 139.5 317.6 139.7 299.4 204.5"/>
            <polygon class="cls-11" points="312.3 139.9 317.2 139.6 319.8 143.3 319.8 132.9 312.3 139.9"/>
          </g>
        </g>
      </g>
    </g>
  </g>
</svg>
