<svg id="SvgjsSvg1001" width="288" height="288" xmlns="http://www.w3.org/2000/svg" version="1.1" xmlns:xlink="http://www.w3.org/1999/xlink" xmlns:svgjs="http://svgjs.com/svgjs"><defs id="SvgjsDefs1002"></defs><g id="SvgjsG1008"><svg xmlns="http://www.w3.org/2000/svg" viewBox="0 0 512 512" width="288" height="288"><path d="M0 0 C1.12143906 -0.00953201 2.24287811 -0.01906403 3.39830017 -0.02888489 C5.20156517 -0.02751778 5.20156517 -0.02751778 7.04125977 -0.02612305 C8.90706444 -0.03255074 8.90706444 -0.03255074 10.81056213 -0.03910828 C14.11103454 -0.04631418 17.41132418 -0.04323225 20.71179199 -0.03753662 C22.72936219 -0.0378413 24.74663879 -0.04787913 26.76416016 -0.06152344 C30.64833324 -0.08602701 34.53201901 -0.09017853 38.41625977 -0.08862305 C39.6164122 -0.09783279 40.81656464 -0.10704254 42.05308533 -0.11653137 C52.97768344 -0.05602314 52.97768344 -0.05602314 57.29516602 3.2746582 C59.062905 6.83418469 59.54355011 9.71003412 59.53567505 13.65937805 C59.53979904 15.25996315 59.53979904 15.25996315 59.54400635 16.8928833 C59.53322052 18.63320831 59.53322052 18.63320831 59.5222168 20.40869141 C59.52250885 21.63837143 59.5228009 22.86805145 59.52310181 24.13499451 C59.52194879 27.49832433 59.51193158 30.86140738 59.49795389 34.22469354 C59.48543514 37.74273972 59.48427513 41.26078934 59.48190308 44.77885437 C59.47569167 51.43692131 59.45928546 58.09492241 59.4392041 64.75296038 C59.41683453 72.33454312 59.40584901 79.91612904 59.39581323 87.49773657 C59.37491892 103.09008188 59.33974955 118.68236155 59.29516602 134.2746582 C58.4057431 134.39379326 58.4057431 134.39379326 57.49835205 134.51533508 C54.76840476 134.88413685 52.03962426 135.26098659 49.31079102 135.63793945 C48.37831543 135.76269653 47.44583984 135.88745361 46.48510742 136.01599121 C17.81258841 140.01082818 -9.31340484 155.51603264 -26.87280273 178.6574707 C-44.90692619 204.42050421 -53.54823118 233.98959136 -48.57983398 265.3371582 C-44.98197854 285.5773105 -36.76755906 303.41589833 -23.70483398 319.2746582 C-22.93397461 320.21051758 -22.16311523 321.14637695 -21.36889648 322.1105957 C-2.85863134 343.49624184 23.77089941 355.94474334 51.58081055 359.32836914 C52.32331558 359.41988251 53.06582062 359.51139587 53.83082581 359.60568237 C55.65211374 359.82996764 57.47361869 360.05248946 59.29516602 360.2746582 C59.34189319 376.61665491 59.37715837 392.95862993 59.39879036 409.3006773 C59.40910157 416.8886253 59.42315893 424.47653178 59.44604492 432.06445312 C59.46598355 438.67832349 59.47888358 445.29216379 59.48334301 451.90606338 C59.48594959 455.407854 59.49207294 458.9095586 59.50662613 462.41132164 C59.52274314 466.32110579 59.52314539 470.23080589 59.5222168 474.140625 C59.52940735 475.30084167 59.5365979 476.46105835 59.54400635 477.65643311 C59.54125702 478.72348984 59.53850769 479.79054657 59.53567505 480.88993835 C59.53751863 481.81449672 59.53936222 482.73905508 59.54126167 483.69163036 C59.264914 486.59218428 58.62289324 488.68316443 57.29516602 491.2746582 C53.79824628 493.60593803 52.37060453 493.53653464 48.23486328 493.56518555 C46.98669327 493.57794525 45.73852325 493.59070496 44.45252991 493.60385132 C43.08887893 493.60690864 41.72522589 493.60913658 40.36157227 493.6105957 C38.96296552 493.61702286 37.56436013 493.62375116 36.16575623 493.63076782 C33.23449588 493.64274162 30.30335339 493.64644851 27.37207031 493.64526367 C23.61800008 493.64506038 19.86468599 493.67237179 16.11079502 493.70680809 C13.22227006 493.72905692 10.33392773 493.73310187 7.44532585 493.73204422 C6.06143523 493.73440288 4.67753978 493.74324147 3.2937336 493.75870895 C1.35754277 493.77832571 -0.57886993 493.77001946 -2.51513672 493.76049805 C-3.61639389 493.76334808 -4.71765106 493.76619812 -5.85227966 493.76913452 C-9.3845968 493.15682465 -10.53124446 492.07282195 -12.70483398 489.2746582 C-13.64820774 486.44453693 -13.82656228 484.73165903 -13.81835938 481.80322266 C-13.81828384 480.90251541 -13.81820831 480.00180817 -13.81813049 479.07380676 C-13.81038857 477.62055244 -13.81038857 477.62055244 -13.80249023 476.13793945 C-13.80036781 474.64607368 -13.80036781 474.64607368 -13.79820251 473.12406921 C-13.79260159 469.94506838 -13.78004894 466.76613778 -13.76733398 463.5871582 C-13.7623191 461.43286234 -13.75775618 459.27856538 -13.75366211 457.12426758 C-13.74263187 451.84104046 -13.72589285 446.55785435 -13.70483398 441.2746582 C-14.37703979 441.07771866 -15.04924561 440.88077911 -15.74182129 440.6778717 C-16.6313147 440.4146965 -17.52080811 440.1515213 -18.43725586 439.88037109 C-19.31571167 439.62155655 -20.19416748 439.362742 -21.09924316 439.09608459 C-24.9223761 437.89082156 -28.55408371 436.35914772 -32.20483398 434.7121582 C-32.96965088 434.36773682 -33.73446777 434.02331543 -34.52246094 433.66845703 C-50.19209459 426.47486717 -64.82321277 417.83369123 -77.90405273 406.54418945 C-78.86956055 405.71274414 -79.83506836 404.88129883 -80.82983398 404.0246582 C-81.65741211 403.27700195 -82.48499023 402.5293457 -83.33764648 401.7590332 C-85.55928575 400.03819734 -85.55928575 400.03819734 -87.95483398 400.45214844 C-91.38321863 401.47755929 -94.02737946 403.06806649 -97.07202148 404.95043945 C-97.96874069 405.50008614 -97.96874069 405.50008614 -98.88357544 406.06083679 C-100.78672626 407.22930618 -102.6833857 408.40784814 -104.57983398 409.5871582 C-106.47045678 410.75350173 -108.36236441 411.91773232 -110.25466919 413.0813446 C-111.97830913 414.14273297 -113.6988416 415.20916285 -115.41918945 416.27587891 C-126.77425585 423.18358648 -126.77425585 423.18358648 -133.70483398 422.2746582 C-136.83357777 419.65707898 -138.72499075 416.81767816 -140.66577148 413.2590332 C-141.21225342 412.26790527 -141.75873535 411.27677734 -142.32177734 410.25561523 C-143.19201538 408.6562915 -143.19201538 408.6562915 -144.07983398 407.0246582 C-145.33707204 404.74497646 -146.59623516 402.46635548 -147.85717773 400.1887207 C-148.17761551 399.60899506 -148.49805328 399.02926941 -148.82820129 398.43197632 C-152.00556599 392.69869334 -155.31519281 387.04684943 -158.64233398 381.3996582 C-164.34533898 371.69595383 -169.85725119 361.89628363 -175.27709961 352.03173828 C-178.13456644 346.84296173 -181.02237188 341.69085602 -184.09545898 336.6262207 C-184.61277588 335.76746338 -185.13009277 334.90870605 -185.66308594 334.02392578 C-186.61260999 332.45977335 -187.57617835 330.90401242 -188.55712891 329.359375 C-191.54649623 324.42004515 -192.61666621 321.061515 -191.70483398 315.2746582 C-187.99132867 309.97525845 -181.87841426 307.40215522 -176.26733398 304.4621582 C-174.29668673 303.40988665 -172.32663496 302.35649912 -170.35717773 301.30200195 C-169.39666504 300.79008301 -168.43615234 300.27816406 -167.4465332 299.75073242 C-163.70524237 297.73649873 -160.01088306 295.64654775 -156.32983398 293.5246582 C-155.22897461 292.89043945 -154.12811523 292.2562207 -152.99389648 291.6027832 C-151.86081055 290.94536133 -151.86081055 290.94536133 -150.70483398 290.2746582 C-150.79047607 289.72342285 -150.87611816 289.1721875 -150.96435547 288.60424805 C-155.34244299 259.92348835 -155.07203642 232.91824744 -150.70483398 204.2746582 C-151.45466553 203.8621582 -152.20449707 203.4496582 -152.97705078 203.0246582 C-155.82824178 201.45412588 -158.67779103 199.88068666 -161.52636719 198.30541992 C-162.74645038 197.63144488 -163.96712983 196.95854783 -165.18847656 196.28686523 C-171.83852951 192.62865054 -178.45491818 188.91169496 -184.97436523 185.0246582 C-186.55568237 184.08879883 -186.55568237 184.08879883 -188.16894531 183.1340332 C-190.77262888 181.22494934 -191.86830152 180.36556283 -192.70483398 177.2746582 C-192.40182726 172.76339377 -191.02154146 169.53315566 -188.81811523 165.6262207 C-188.21668701 164.55098145 -187.61525879 163.47574219 -186.99560547 162.36791992 C-186.01636108 160.65113037 -186.01636108 160.65113037 -185.01733398 158.8996582 C-184.33583656 157.69051746 -183.6549372 156.48103945 -182.97460938 155.27124023 C-178.04423156 146.52845065 -172.99547321 137.85443551 -167.90942383 129.20141602 C-163.72424517 122.06954195 -159.66129488 114.87632156 -155.64233398 107.6496582 C-150.99516609 99.3092596 -146.28411717 91.01113754 -141.45483398 82.7746582 C-140.90561279 81.83025879 -140.3563916 80.88585937 -139.79052734 79.9128418 C-139.28271729 79.05255371 -138.77490723 78.19226563 -138.25170898 77.3059082 C-137.80666016 76.54858398 -137.36161133 75.79125977 -136.90307617 75.01098633 C-135.70483398 73.2746582 -135.70483398 73.2746582 -133.70483398 72.2746582 C-125.37430506 71.01334572 -119.88691749 75.10044127 -112.95483398 79.3371582 C-111.85139648 79.99393555 -110.74795898 80.65071289 -109.61108398 81.32739258 C-105.16125074 83.97796813 -100.71965034 86.63206894 -96.34350586 89.40307617 C-95.28196289 90.06065918 -94.22041992 90.71824219 -93.12670898 91.39575195 C-92.17892578 91.99701904 -91.23114258 92.59828613 -90.25463867 93.21777344 C-87.79634875 94.55574058 -87.79634875 94.55574058 -85.54931641 93.60229492 C-83.31514523 91.99416482 -81.19308157 90.26709512 -79.08911133 88.49291992 C-63.70880445 75.56950474 -34.78344962 53.2746582 -13.70483398 53.2746582 C-13.71482674 52.44899857 -13.71482674 52.44899857 -13.72502136 51.60665894 C-13.7915292 45.86389014 -13.83669853 40.12123125 -13.86962891 34.37817383 C-13.8846904 32.23652704 -13.9051437 30.09491096 -13.93115234 27.95336914 C-13.96765126 24.87028409 -13.98458701 21.78760783 -13.99780273 18.7043457 C-14.01328659 17.75099335 -14.02877045 16.79764099 -14.04472351 15.81539917 C-14.04603307 10.61119262 -13.87416703 6.64332655 -10.70483398 2.2746582 C-7.05908243 0.43624466 -4.05409429 0.01899413 0 0 Z " transform="translate(210.705 8.725)" fill="#e54f38" class="svgShape color000000-0 selectable"></path><path d="M0 0 C1.04027344 0.62068359 1.04027344 0.62068359 2.1015625 1.25390625 C3.17277344 1.89005859 3.17277344 1.89005859 4.265625 2.5390625 C12.56695637 8.11992011 17.62267196 16.88410173 19.5703125 26.58984375 C21.03304489 37.12816572 18.70070817 46.63163912 12.671875 55.3125 C8.21635972 60.95117843 2.75532912 64.5638689 -3.8984375 67.25390625 C-5.2184375 67.25390625 -6.5384375 67.25390625 -7.8984375 67.25390625 C-7.89177567 68.11675232 -7.88511383 68.97959839 -7.87825012 69.86859131 C-7.81784487 78.0469992 -7.77231473 86.22533088 -7.74300098 94.40391159 C-7.72742328 98.60742552 -7.7063316 102.81075331 -7.67211914 107.01416016 C-7.63924105 111.07961069 -7.62152531 115.1448835 -7.61380577 119.21045685 C-7.60831281 120.75241132 -7.59758827 122.29435738 -7.58124733 123.83623505 C-7.44208077 137.52668795 -8.38289996 149.61564571 -17.8984375 160.25390625 C-27.7560795 169.63370923 -38.04648826 171.43254155 -51.2421875 171.36743164 C-52.03339493 171.36757767 -52.82460236 171.36772369 -53.63978577 171.36787415 C-56.226032 171.36718367 -58.81220403 171.35943226 -61.3984375 171.3515625 C-63.20304322 171.34969524 -65.00764945 171.34827279 -66.81225586 171.34727478 C-71.54027733 171.34347385 -76.26826762 171.33366449 -80.99627686 171.3225708 C-85.82954486 171.31230434 -90.66281796 171.30776598 -95.49609375 171.30273438 C-104.9635575 171.29203985 -114.43099002 171.27446291 -123.8984375 171.25390625 C-123.8984375 180.82390625 -123.8984375 190.39390625 -123.8984375 200.25390625 C-112.20378862 200.46399816 -100.51317574 200.60720468 -88.81665897 200.6399374 C-83.38245027 200.65766688 -77.95148537 200.70213727 -72.51831055 200.81274414 C-38.0134284 201.72664082 -38.0134284 201.72664082 -8.19119263 186.05752563 C-5.00387253 183.55018752 -1.60610227 181.61358664 1.94921875 179.68359375 C3.53379883 178.77480469 3.53379883 178.77480469 5.15039062 177.84765625 C6.14490234 177.28046875 7.13941406 176.71328125 8.1640625 176.12890625 C16.52696159 171.36581034 16.52696159 171.36581034 24.72265625 166.32421875 C28.1015625 164.25390625 28.1015625 164.25390625 30.1015625 164.25390625 C29.61816406 162.79404297 29.61816406 162.79404297 29.125 161.3046875 C26.55669036 152.2610556 26.48522634 140.00186079 30.64453125 131.4921875 C36.52679266 122.45589852 44.37315516 114.77823739 55.1015625 112.25390625 C67.34775526 110.23551632 76.94243699 112.43245437 87.1640625 119.31640625 C94.32922074 125.65708053 98.61187444 134.6680459 99.4375 144.0859375 C99.55544725 156.10476218 97.48674483 165.24903377 89.1015625 174.25390625 C80.33156533 182.43058437 71.06147519 184.04565407 59.34765625 183.6953125 C54.2739259 183.34127837 50.096678 181.61133142 45.6171875 179.25 C42.53507364 178.02959777 41.26513297 178.3918119 38.1015625 179.25390625 C35.8847946 180.30327471 35.8847946 180.30327471 33.71484375 181.66796875 C32.45039429 182.4273877 32.45039429 182.4273877 31.16040039 183.20214844 C29.80096313 184.03214355 29.80096313 184.03214355 28.4140625 184.87890625 C26.44094775 186.06520631 24.46695122 187.25004067 22.4921875 188.43359375 C21.45384766 189.05717773 20.41550781 189.68076172 19.34570312 190.32324219 C12.79275868 194.2230529 6.1668547 197.99752445 -0.44995117 201.78759766 C-1.4629126 202.36944824 -2.47587402 202.95129883 -3.51953125 203.55078125 C-4.5022551 204.10170944 -5.48497894 204.65263763 -6.4974823 205.22026062 C-9.91964805 207.1892842 -9.91964805 207.1892842 -12.98977661 209.5533905 C-24.1424832 217.67544347 -34.62605478 217.43687502 -48.01953125 217.1328125 C-50.21767041 217.11598986 -52.41584372 217.10319601 -54.61402893 217.09422302 C-60.35067812 217.06014652 -66.08521885 216.97199361 -71.82104492 216.87188721 C-77.69355763 216.7791923 -83.56641696 216.73858205 -89.43945312 216.69335938 C-100.92684841 216.59734354 -112.41213635 216.4392765 -123.8984375 216.25390625 C-123.8984375 225.82390625 -123.8984375 235.39390625 -123.8984375 245.25390625 C-73.7384375 244.92390625 -23.5784375 244.59390625 28.1015625 244.25390625 C29.4215625 240.95390625 30.7415625 237.65390625 32.1015625 234.25390625 C38.73155297 224.72017935 46.68062036 219.18207759 57.94921875 216.6953125 C68.66584738 215.1947189 77.36646461 217.94362106 86.2265625 223.81640625 C93.0350545 229.18149795 97.20023063 236.90418942 99.1015625 245.25390625 C100.05762501 256.05963605 99.7154355 265.94495613 93.11328125 274.97265625 C86.38935154 282.86949943 78.99990978 288.62744599 68.40234375 289.58984375 C55.59217633 289.71531062 46.80606165 287.84742209 37.265625 278.625 C32.55440585 273.46306855 30.31952349 268.90778923 28.1015625 262.25390625 C-47.1384375 261.75890625 -47.1384375 261.75890625 -123.8984375 261.25390625 C-123.8984375 270.82390625 -123.8984375 280.39390625 -123.8984375 290.25390625 C-121.01988037 290.18582764 -118.14132324 290.11774902 -115.17553711 290.04760742 C-105.5730471 289.83041296 -95.97043681 289.68790617 -86.36612606 289.58034801 C-80.55304533 289.51302543 -74.74251899 289.42201069 -68.9309082 289.27319336 C-20.5915084 288.06820895 -20.5915084 288.06820895 -3.93771362 301.63442993 C-0.9267334 304.025578 2.34216322 305.83829276 5.69140625 307.70703125 C7.80812755 308.97125776 9.92403896 310.23684146 12.0390625 311.50390625 C14.31207189 312.85098305 16.5855078 314.19734043 18.859375 315.54296875 C22.64073169 317.78389968 26.40640185 320.04666152 30.15625 322.33984375 C31.57508105 323.18693497 32.99431138 324.03335801 34.4140625 324.87890625 C35.3275647 325.45560059 35.3275647 325.45560059 36.25952148 326.04394531 C39.35676546 327.85839375 40.747064 328.32980861 44.3125 327.56640625 C46.35493259 326.6052615 48.38749701 325.62307045 50.4140625 324.62890625 C58.43284999 321.61606702 69.64082517 321.90595474 77.6640625 324.87890625 C86.0740223 328.97679838 91.55924504 334.06075419 96.1015625 342.25390625 C96.61396484 343.14142578 96.61396484 343.14142578 97.13671875 344.046875 C100.9778659 352.14008271 100.25252313 363.78171441 97.6640625 372.12890625 C93.94314743 380.85925114 86.71693608 388.25450652 78.1015625 392.25390625 C68.77038402 395.98109086 56.89108787 395.65685908 47.6328125 391.7109375 C39.04074527 386.7651951 32.76793157 379.67190338 28.98828125 370.57421875 C27.87425665 366.40276099 27.84635503 362.61048514 27.9140625 358.31640625 C27.9150293 357.1572168 27.9150293 357.1572168 27.91601562 355.97460938 C27.95152395 351.30723733 28.33527267 346.85777557 29.1015625 342.25390625 C28.54621826 341.94388672 27.99087402 341.63386719 27.41870117 341.31445312 C-17.01795239 316.46212302 -17.01795239 316.46212302 -22.75299072 311.72064209 C-31.4949557 305.1688529 -41.80613095 306.3982182 -52.21875 306.44921875 C-54.28955627 306.43795677 -56.36034977 306.42407099 -58.43112183 306.40768433 C-63.8530225 306.37176685 -69.27435788 306.3712576 -74.6963501 306.37835693 C-80.24037681 306.37927228 -85.78419444 306.34637667 -91.328125 306.31640625 C-102.18502213 306.26265685 -113.04140807 306.24947713 -123.8984375 306.25390625 C-123.8984375 315.82390625 -123.8984375 325.39390625 -123.8984375 335.25390625 C-121.50231201 335.24343262 -119.10618652 335.23295898 -116.63745117 335.22216797 C-108.68668754 335.18890588 -100.73592069 335.16688791 -92.78510571 335.15028191 C-87.96843447 335.13988134 -83.15183502 335.12579083 -78.33520508 335.10302734 C-73.67973953 335.08116528 -69.02434268 335.06930965 -64.36882973 335.06415176 C-62.59998812 335.06047986 -60.83114993 335.0533101 -59.06233788 335.04244614 C-42.8368335 334.94682781 -29.38372003 335.42523421 -16.9453125 346.984375 C-7.36880417 357.60260275 -7.60904056 371.2066872 -7.703125 384.6640625 C-7.70686158 386.24303507 -7.7097055 387.82200998 -7.71170044 389.40098572 C-7.7192862 393.5289872 -7.73889039 397.65684484 -7.7611084 401.78479004 C-7.78167662 406.00819962 -7.79072549 410.23163275 -7.80078125 414.45507812 C-7.82214176 422.7214197 -7.85621556 430.98764501 -7.8984375 439.25390625 C-6.95605225 439.40013428 -6.01366699 439.5463623 -5.04272461 439.69702148 C3.36172115 441.18553307 9.24310813 446.49761815 14.1015625 453.25390625 C19.521253 461.21407667 20.79970993 471.09107213 19.5390625 480.50390625 C17.75366013 489.17913056 13.13908297 497.72933237 5.7734375 502.8828125 C-4.71761405 509.4004568 -15.83340118 511.29673134 -27.94921875 508.56640625 C-38.34702845 504.68541973 -44.92563944 498.07535243 -49.8984375 488.28515625 C-53.92035184 478.84912646 -53.62322385 468.65170119 -50.1171875 459.1328125 C-46.44918337 451.02209647 -40.14935578 443.84729683 -31.8984375 440.25390625 C-29.90218723 439.89880628 -27.90227186 439.5633557 -25.8984375 439.25390625 C-25.91334181 429.74337534 -25.95506661 420.23344243 -26.03052807 410.72319794 C-26.06474068 406.30660788 -26.08989908 401.89036163 -26.09399414 397.47363281 C-26.09828947 393.20688045 -26.12685346 388.94090288 -26.17186928 384.6743927 C-26.18480504 383.05105613 -26.1891659 381.42762666 -26.18459129 379.804245 C-25.96138756 368.58614518 -25.96138756 368.58614518 -30.5304718 358.59655762 C-35.94248089 353.28469826 -42.75675078 353.10307367 -49.87988281 353.04858398 C-50.6802597 353.03868439 -51.4806366 353.02878479 -52.30526733 353.01858521 C-54.94566916 352.98704683 -57.58608897 352.96224312 -60.2265625 352.9375 C-62.05931053 352.91692385 -63.89205389 352.89592721 -65.72479248 352.87452698 C-70.54488332 352.81937454 -75.3650165 352.76993517 -80.18518066 352.72167969 C-85.10526287 352.67141479 -90.02528371 352.61575477 -94.9453125 352.56054688 C-104.59630172 352.45304882 -114.24734426 352.35158532 -123.8984375 352.25390625 C-123.8984375 354.56390625 -123.8984375 356.87390625 -123.8984375 359.25390625 C-147.16747608 360.75513455 -171.89123286 349.56461068 -189.24609375 334.65625 C-212.07245168 313.98141918 -225.31913836 288.38400941 -227.1171875 257.49609375 C-227.78403383 229.54411826 -218.77265965 203.07546878 -199.8984375 182.25390625 C-199.46047852 181.76680176 -199.02251953 181.27969727 -198.57128906 180.77783203 C-182.20337083 162.79853441 -159.15398505 150.38897702 -134.8984375 147.25390625 C-132.94103557 147.19002237 -130.98173603 147.16752456 -129.0234375 147.19140625 C-128.05664062 147.20042969 -127.08984375 147.20945313 -126.09375 147.21875 C-125.00707031 147.23615234 -125.00707031 147.23615234 -123.8984375 147.25390625 C-123.8984375 149.23390625 -123.8984375 151.21390625 -123.8984375 153.25390625 C-112.8061243 153.21582394 -101.71414795 153.15642497 -90.62209988 153.07000351 C-85.47127976 153.03053764 -80.32063037 152.99834472 -75.16967773 152.98291016 C-70.19630255 152.96773782 -65.22339678 152.93328175 -60.25023079 152.88559723 C-58.35532784 152.87078943 -56.46035788 152.86286558 -54.56539726 152.8620224 C-51.90564123 152.85964918 -49.2471787 152.83254156 -46.58764648 152.79980469 C-45.8086499 152.80483505 -45.02965332 152.80986542 -44.22705078 152.81504822 C-38.96983405 152.71529551 -34.95028419 151.74478967 -30.8984375 148.25390625 C-27.12033049 143.74184445 -26.3926296 139.52950074 -26.35253906 133.66625977 C-26.33703255 132.58208015 -26.33703255 132.58208015 -26.32121277 131.47599792 C-26.29195683 129.11137073 -26.29028934 126.74760585 -26.2890625 124.3828125 C-26.27406911 122.73370244 -26.25733953 121.08460733 -26.23895264 119.43553162 C-26.19539658 115.11356895 -26.17530626 110.79180882 -26.16021729 106.46966553 C-26.14060364 102.05192142 -26.09863851 97.63439467 -26.05859375 93.21679688 C-25.98341898 84.56255707 -25.93305071 75.90840292 -25.8984375 67.25390625 C-26.83631104 67.11597656 -27.77418457 66.97804688 -28.74047852 66.8359375 C-36.72139665 65.36500524 -42.92119278 58.88333242 -47.49609375 52.5 C-53.07169291 43.56972279 -53.94674836 33.22124138 -51.74609375 23.01953125 C-48.78808287 13.36850959 -43.43445751 6.07730257 -34.71484375 0.9765625 C-24.55761017 -4.26046986 -10.45895809 -5.15759617 0 0 Z " transform="translate(393.898 2.746)" fill="#e54f38" class="svgShape color000000-1 selectable"></path></svg></g></svg>
