<?xml version="1.0" encoding="UTF-8"?>
<svg xmlns="http://www.w3.org/2000/svg" version="1.1" viewBox="0 0 32 32">
  <defs>
    <style>
      .cls-1 {
        fill: #444;
      }

      .cls-2 {
        fill: #7f7f7f;
      }
    </style>
  </defs>
  <!-- Generator: Adobe Illustrator 28.6.0, SVG Export Plug-In . SVG Version: 1.2.0 Build 709)  -->
  <g>
    <g id="Layer_1">
      <g>
        <path class="cls-1" d="M29.7,5.3H2.4c-1.2,0-2.3-.9-2.4-2.1S1,.7,2.3.7h27.3c1.2,0,2.3.9,2.4,2.1s-.9,2.5-2.3,2.5Z"/>
        <path class="cls-2" d="M31.6,10.8c0-1-1-1.9-2.2-1.9H2.6c-1.2,0-2.2.9-2.2,1.9s1,1.9,2.2,1.9h26.7c1.2,0,2.2-.9,2.2-1.9Z"/>
        <path class="cls-2" d="M31.6,16.5c0-1-1-1.9-2.2-1.9H2.6c-1.2,0-2.2.9-2.2,1.9s1,1.9,2.2,1.9h26.7c1.2,0,2.2-.9,2.2-1.9Z"/>
        <path class="cls-2" d="M31.6,22.2c0-1-1-1.9-2.2-1.9H2.6c-1.2,0-2.2.9-2.2,1.9s1,1.9,2.2,1.9h26.7c1.2,0,2.2-.9,2.2-1.9Z"/>
        <path class="cls-2" d="M31.6,27.6c0-1-1-1.9-2.2-1.9H2.6c-1.2,0-2.2.9-2.2,1.9s1,1.9,2.2,1.9h26.7c1.2,0,2.2-.9,2.2-1.9Z"/>
      </g>
    </g>
  </g>
</svg>
