<?xml version="1.0" encoding="UTF-8"?>
<svg xmlns="http://www.w3.org/2000/svg" version="1.1" viewBox="0 0 60 60">
  <defs>
    <style>
      .cls-1 {
        fill: #e54f38;
      }
    </style>
  </defs>
  <!-- Generator: Adobe Illustrator 28.6.0, SVG Export Plug-In . SVG Version: 1.2.0 Build 709)  -->
  <g>
    <g id="Layer_1">
      <g>
        <path class="cls-1" d="M26.6,59.7c-1.2-.4-2.4-.6-3.5-1.2-2.5-1.3-4-3.4-4.6-6.2h18.3c-.3.8-.5,1.6-.9,2.3-1.5,2.8-3.8,4.5-6.9,5-.1,0-.2,0-.3.1h-2Z"/>
        <path class="cls-1" d="M29.1,5.3c-2.4,5.8-2.2,11.4,1.2,16.7,3.4,5.2,8.3,7.8,14.5,8,.2,1.3.4,2.5.7,3.7.8,3.2,2.5,6,5,8.2,1.4,1.2,2.1,2.7,1.7,4.6-.5,1.9-2.2,3.2-4.4,3.3-.2,0-.4,0-.6,0-13.1,0-26.3,0-39.4,0-.9,0-1.8-.1-2.7-.6-2.7-1.4-3.2-5-.9-7,2-1.8,3.6-3.8,4.6-6.3.8-2,1.3-4,1.3-6.1,0-2.4,0-4.8,0-7.1,0-8,5.2-14.7,12.9-16.9,2-.5,4-.7,6.1-.5Z"/>
        <path class="cls-1" d="M44.9,25c-6.9,0-12.4-5.6-12.4-12.4,0-6.8,5.6-12.3,12.4-12.3,6.9,0,12.4,5.6,12.3,12.4,0,6.8-5.6,12.3-12.4,12.3Z"/>
      </g>
    </g>
  </g>
</svg>
