<?xml version="1.0" encoding="UTF-8"?>
<svg xmlns="http://www.w3.org/2000/svg" version="1.1" viewBox="0 0 120 120">
  <defs>
    <style>
      .cls-1 {
        fill: #e54e36;
      }
    </style>
  </defs>
  <!-- Generator: Adobe Illustrator 28.6.0, SVG Export Plug-In . SVG Version: 1.2.0 Build 709)  -->
  <g>
    <g id="Layer_1">
      <g>
        <path class="cls-1" d="M30.6,45.2c0-10.7,0-21.5,0-32.2,0-7.1,4.6-11.8,11.8-11.8,21.5,0,43.1,0,64.6,0,7.1,0,11.7,4.6,11.8,11.8,0,21.6,0,43.1,0,64.7,0,7.1-4.6,11.8-11.8,11.8-21.5,0-43.1,0-64.6,0-7.1,0-11.8-4.7-11.8-11.8,0-10.8,0-21.7,0-32.5Z"/>
        <path class="cls-1" d="M23.3,30.6c0,.6,0,1.1,0,1.5,0,15.4,0,30.8,0,46.3,0,8.8,5.9,16.1,14.5,18,1.5.3,3.1.4,4.7.4,15.1,0,30.2,0,45.4,0,.5,0,.9,0,1.5,0,0,1.1,0,2,0,3,0,3.3.2,6.6-.2,9.9-.7,5.4-5.3,9.2-10.7,9.2-4.6,0-9.2,0-13.9,0-17.2,0-34.4,0-51.6,0-7.1,0-11.8-4.7-11.8-11.8,0-21.6,0-43.2,0-64.7,0-7.1,4.6-11.8,11.8-11.8,3.4,0,6.7,0,10.3,0Z"/>
      </g>
    </g>
  </g>
</svg>
